<?xml version="1.0" encoding="UTF-8" standalone="no"?>
<!-- Created with Inkscape (http://www.inkscape.org/) -->

<svg
   xmlns:dc="http://purl.org/dc/elements/1.1/"
   xmlns:cc="http://creativecommons.org/ns#"
   xmlns:rdf="http://www.w3.org/1999/02/22-rdf-syntax-ns#"
   xmlns:svg="http://www.w3.org/2000/svg"
   xmlns="http://www.w3.org/2000/svg"
   xmlns:sodipodi="http://sodipodi.sourceforge.net/DTD/sodipodi-0.dtd"
   xmlns:inkscape="http://www.inkscape.org/namespaces/inkscape"
   width="110.2mm"
   height="88.400002mm"
   viewBox="0 0 110.19999 88.400004"
   version="1.1"
   id="svg1080"
   inkscape:version="0.92.4 (unknown)"
   sodipodi:docname="#4-otp.svg">
  <defs
     id="defs1074" />
  <sodipodi:namedview
     id="base"
     pagecolor="#ffffff"
     bordercolor="#666666"
     borderopacity="1.0"
     inkscape:pageopacity="0.0"
     inkscape:pageshadow="2"
     inkscape:zoom="2.2271438"
     inkscape:cx="217.33262"
     inkscape:cy="165.8654"
     inkscape:document-units="mm"
     inkscape:current-layer="layer1"
     showgrid="false"
     inkscape:window-width="1920"
     inkscape:window-height="1028"
     inkscape:window-x="0"
     inkscape:window-y="24"
     inkscape:window-maximized="1"
     inkscape:snap-global="false" />
  <metadata
     id="metadata1077">
    <rdf:RDF>
      <cc:Work
         rdf:about="">
        <dc:format>image/svg+xml</dc:format>
        <dc:type
           rdf:resource="http://purl.org/dc/dcmitype/StillImage" />
        <dc:title></dc:title>
      </cc:Work>
    </rdf:RDF>
  </metadata>
  <g
     inkscape:label="Layer 1"
     inkscape:groupmode="layer"
     id="layer1"
     transform="translate(0,-208.60001)">
    <path
       style="opacity:1;fill:#22a6b3;fill-opacity:1;fill-rule:nonzero;stroke:none;stroke-width:0.11207569;stroke-linecap:round;stroke-linejoin:miter;stroke-miterlimit:4;stroke-dasharray:none;stroke-dashoffset:0;stroke-opacity:0.99215686"
       d="m 82.53599,209.35463 -0.0525,13.90419 c 0.275921,0.0836 0.669255,-0.0316 0.969571,-0.007 l 26.167199,-0.021 c 0.0835,-0.27592 -0.0527,-0.59576 -0.028,-0.89607 -0.0144,-2.59976 0.0158,-5.20052 -0.0495,-7.79964 -0.0758,-2.39242 -2.05377,-4.54108 -4.37,-5.05689 -0.60538,-0.20745 -1.24642,-0.1154 -1.87376,-0.13527 -6.909316,-0.008 -13.818632,-0.0156 -20.727951,-0.0234 l -0.0297,0.0297 z"
       id="path3830"
       inkscape:connector-curvature="0"
       sodipodi:nodetypes="ccccccccccc" />
    <path
       style="opacity:1;fill:#22a6b3;fill-opacity:1;fill-rule:nonzero;stroke:none;stroke-width:0.11207569;stroke-linecap:round;stroke-linejoin:miter;stroke-miterlimit:4;stroke-dasharray:none;stroke-dashoffset:0;stroke-opacity:0.99215686"
       d="m 55.150732,209.37718 -0.0525,13.86064 c 0.275921,0.0836 0.669259,-0.0316 0.969571,-0.007 l 26.314207,0.063 c 0.08355,-0.27592 -0.01064,-0.67975 0.01402,-0.98007 V 209.1094 c -0.275921,-0.0836 -0.616755,0.25739 -0.917067,0.23273 H 55.185755 l -0.04084,-0.15964 z"
       id="path3832"
       inkscape:connector-curvature="0"
       sodipodi:nodetypes="cccccccccc" />
    <path
       style="opacity:1;fill:#22a6b3;fill-opacity:1;fill-rule:nonzero;stroke:none;stroke-width:0.11207569;stroke-linecap:round;stroke-linejoin:miter;stroke-miterlimit:4;stroke-dasharray:none;stroke-dashoffset:0;stroke-opacity:0.99215686"
       d="m 27.765476,209.37718 -0.02101,13.88164 c 0.275921,0.0836 0.637754,-0.0526 0.93807,-0.028 l 26.36671,0.063 c 0.08354,-0.27592 -0.06313,-0.67976 -0.03848,-0.98007 l -0.0037,-13.15935 c -0.27592,-0.0835 -0.613045,0.21238 -0.913357,0.18773 H 27.800504 l -0.0297,-0.12994 z"
       id="path3834"
       inkscape:connector-curvature="0"
       sodipodi:nodetypes="cccccccccc" />
    <path
       style="opacity:1;fill:#22a6b3;fill-opacity:1;fill-rule:nonzero;stroke:none;stroke-width:0.11207569;stroke-linecap:round;stroke-linejoin:miter;stroke-miterlimit:4;stroke-dasharray:none;stroke-dashoffset:0;stroke-opacity:0.99215686"
       d="m 16.533487,209.35315 c -3.647692,0.0152 -7.2960389,-0.0159 -10.9432725,0.0459 -0.6980279,0.027 -1.362203,0.31224 -1.977817,0.62331 -1.4908382,0.82453 -2.85887623,2.40581 -3.09923555,4.09948 -0.073302,2.29542 0.22856708,4.54089 0.20726746,6.83733 l -0.25875077,2.28912 c 0.27580602,0.0837 0.86878646,-0.0421 1.16908106,-0.0174 l 26.0122353,0.042 c 0.08355,-0.27593 -0.04213,-0.65876 -0.01746,-0.95908 v -13.06762 c -0.275921,-0.0833 -0.616755,0.12022 -0.917067,0.0959 -3.391657,0.004 -6.783313,0.007 -10.174969,0.0111 z"
       id="path3836"
       inkscape:connector-curvature="0"
       sodipodi:nodetypes="ccccccccccccc" />
    <path
       style="fill:none;fill-rule:evenodd;stroke:#000000;stroke-width:0.154;stroke-linecap:butt;stroke-linejoin:miter;stroke-opacity:0.99215686;stroke-miterlimit:4;stroke-dasharray:none"
       d="m 27.692225,208.82751 v 87.799"
       id="path1625-7"
       inkscape:connector-curvature="0" />
    <path
       style="fill:none;fill-rule:evenodd;stroke:#000000;stroke-width:0.14581032px;stroke-linecap:butt;stroke-linejoin:miter;stroke-opacity:0.99215686"
       d="M 0.20499944,282.01761 H 109.75695"
       id="path1656"
       inkscape:connector-curvature="0" />
    <path
       style="fill:none;fill-rule:evenodd;stroke:#000000;stroke-width:0.15350783;stroke-linecap:butt;stroke-linejoin:miter;stroke-miterlimit:4;stroke-dasharray:none;stroke-opacity:0.99215686"
       d="m 55.080216,208.82751 v 87.799"
       id="path1625-7-5"
       inkscape:connector-curvature="0" />
    <path
       style="fill:none;fill-rule:evenodd;stroke:#000000;stroke-width:0.1538724px;stroke-linecap:butt;stroke-linejoin:miter;stroke-opacity:0.99215686"
       d="m 82.468206,208.82751 v 87.799"
       id="path1625-7-3"
       inkscape:connector-curvature="0" />
    <path
       style="fill:none;fill-rule:evenodd;stroke:#000000;stroke-width:0.14581034px;stroke-linecap:butt;stroke-linejoin:miter;stroke-opacity:0.99215686"
       d="M 0.20499944,267.3358 H 109.75695"
       id="path1656-2"
       inkscape:connector-curvature="0" />
    <path
       style="fill:none;fill-rule:evenodd;stroke:#000000;stroke-width:0.14581034px;stroke-linecap:butt;stroke-linejoin:miter;stroke-opacity:0.99215686"
       d="M 0.20499944,252.65399 H 109.75695"
       id="path1656-9"
       inkscape:connector-curvature="0" />
    <path
       style="fill:none;fill-rule:evenodd;stroke:#000000;stroke-width:0.14581034px;stroke-linecap:butt;stroke-linejoin:miter;stroke-opacity:0.99215686"
       d="M 0.20499944,237.97218 H 109.75695"
       id="path1656-1"
       inkscape:connector-curvature="0" />
    <path
       style="fill:none;fill-rule:evenodd;stroke:#000000;stroke-width:0.14581034px;stroke-linecap:butt;stroke-linejoin:miter;stroke-opacity:0.99215686"
       d="M 0.20499944,223.29037 H 109.75695"
       id="path1656-27"
       inkscape:connector-curvature="0" />
    <g
       aria-label="123"
       style="font-style:normal;font-variant:normal;font-weight:normal;font-stretch:normal;font-size:2.82222223px;line-height:125%;font-family:FontAwesome;-inkscape-font-specification:FontAwesome;letter-spacing:0px;word-spacing:0px;fill:#b3b3b3;fill-opacity:1;stroke:none;stroke-width:0.26458332px;stroke-linecap:butt;stroke-linejoin:miter;stroke-opacity:1"
       id="text1844-6">
      <path
         d="m 8.8271292,291.04381 h 0.9663493 v -3.33537 l -1.051271,0.21084 v -0.53881 l 1.0454143,-0.21084 h 0.5915232 v 3.87418 h 0.966349 v 0.49782 H 8.8271292 Z"
         style="font-size:5.99722242px;fill:#b3b3b3;stroke-width:0.26458332px"
         id="path5638" />
      <path
         d="m 13.052711,291.04381 h 2.064474 v 0.49782 h -2.776058 v -0.49782 q 0.336758,-0.34847 0.916567,-0.93414 0.582738,-0.58859 0.732083,-0.75844 0.284048,-0.31918 0.395325,-0.53881 0.114205,-0.22255 0.114205,-0.43632 0,-0.34847 -0.24598,-0.5681 -0.243052,-0.21962 -0.635448,-0.21962 -0.278191,0 -0.588595,0.0966 -0.307474,0.0966 -0.658874,0.29284 v -0.59738 q 0.357256,-0.14349 0.667659,-0.2167 0.310404,-0.0732 0.568097,-0.0732 0.679373,0 1.083482,0.33969 0.40411,0.33969 0.40411,0.90778 0,0.26941 -0.102492,0.51246 -0.09956,0.24012 -0.366041,0.5681 -0.07321,0.0849 -0.465605,0.49196 -0.392396,0.40411 -1.106909,1.13326 z"
         style="font-size:5.99722242px;fill:#b3b3b3;stroke-width:0.26458332px"
         id="path5640" />
      <path
         d="m 18.153864,289.18432 q 0.424608,0.0908 0.661803,0.37775 0.240123,0.28698 0.240123,0.70866 0,0.64716 -0.445106,1.00149 -0.445107,0.35433 -1.265039,0.35433 -0.275263,0 -0.568097,-0.0556 -0.289904,-0.0527 -0.600307,-0.16106 v -0.57102 q 0.245979,0.14348 0.538812,0.21669 0.292834,0.0732 0.612022,0.0732 0.556383,0 0.846287,-0.21962 0.292834,-0.21963 0.292834,-0.63838 0,-0.38654 -0.272335,-0.60324 -0.269407,-0.21962 -0.752581,-0.21962 h -0.50953 v -0.4861 h 0.532956 q 0.436322,0 0.66766,-0.17278 0.231338,-0.1757 0.231338,-0.50367 0,-0.33676 -0.240123,-0.51538 -0.237195,-0.18156 -0.682301,-0.18156 -0.243052,0 -0.521243,0.0527 -0.278192,0.0527 -0.612022,0.16399 v -0.5271 q 0.336759,-0.0937 0.629592,-0.14056 0.295761,-0.0469 0.556383,-0.0469 0.673516,0 1.065912,0.30748 0.392397,0.30454 0.392397,0.82579 0,0.36311 -0.207912,0.61495 -0.207911,0.2489 -0.591523,0.34554 z"
         style="font-size:5.99722242px;fill:#b3b3b3;stroke-width:0.26458332px"
         id="path5642" />
    </g>
    <g
       aria-label="abc"
       style="font-style:normal;font-variant:normal;font-weight:normal;font-stretch:normal;font-size:2.82222223px;line-height:125%;font-family:FontAwesome;-inkscape-font-specification:FontAwesome;letter-spacing:0px;word-spacing:0px;fill:#b3b3b3;fill-opacity:1;stroke:none;stroke-width:0.26458332px;stroke-linecap:butt;stroke-linejoin:miter;stroke-opacity:1"
       id="text1844-8">
      <path
         d="m 37.957479,289.94568 q -0.653018,0 -0.904854,0.14934 -0.251837,0.14935 -0.251837,0.50953 0,0.28698 0.187414,0.45682 0.190341,0.16692 0.515386,0.16692 0.448035,0 0.717441,-0.31626 0.272335,-0.31919 0.272335,-0.84629 v -0.12006 z m 1.074698,-0.22255 v 1.8712 h -0.538813 v -0.49782 q -0.184485,0.29869 -0.459748,0.44218 -0.275263,0.14056 -0.673516,0.14056 -0.503673,0 -0.802363,-0.28112 -0.295762,-0.28405 -0.295762,-0.75844 0,-0.55345 0.36897,-0.83457 0.371898,-0.28112 1.106909,-0.28112 h 0.75551 v -0.0527 q 0,-0.3719 -0.24598,-0.57395 -0.243052,-0.20499 -0.68523,-0.20499 -0.281119,0 -0.547598,0.0674 -0.266478,0.0674 -0.512457,0.20205 v -0.49782 q 0.295761,-0.1142 0.573952,-0.16984 0.278192,-0.0586 0.541742,-0.0586 0.711584,0 1.062984,0.36897 0.3514,0.36897 0.3514,1.11863 z"
         style="font-size:5.99722242px;fill:#b3b3b3;stroke-width:0.26458332px"
         id="path5631" />
      <path
         d="m 42.499321,289.95739 q 0,-0.59445 -0.24598,-0.93121 -0.243051,-0.33968 -0.670588,-0.33968 -0.427536,0 -0.673516,0.33968 -0.243051,0.33676 -0.243051,0.93121 0,0.59445 0.243051,0.93414 0.24598,0.33676 0.673516,0.33676 0.427537,0 0.670588,-0.33676 0.24598,-0.33969 0.24598,-0.93414 z m -1.833135,-1.14497 q 0.169843,-0.29284 0.427536,-0.4334 0.260621,-0.14349 0.620806,-0.14349 0.59738,0 0.969278,0.47439 0.374826,0.47439 0.374826,1.24747 0,0.77308 -0.374826,1.24747 -0.371898,0.47439 -0.969278,0.47439 -0.360185,0 -0.620806,-0.14056 -0.257693,-0.14349 -0.427536,-0.43632 v 0.49196 h -0.541742 v -4.55648 h 0.541742 z"
         style="font-size:5.99722242px;fill:#b3b3b3;stroke-width:0.26458332px"
         id="path5633" />
      <path
         d="m 46.312008,288.44052 v 0.50367 q -0.22841,-0.12592 -0.459748,-0.18741 -0.22841,-0.0644 -0.462676,-0.0644 -0.524171,0 -0.814076,0.33383 -0.289905,0.3309 -0.289905,0.93121 0,0.60031 0.289905,0.93414 0.289905,0.3309 0.814076,0.3309 0.234266,0 0.462676,-0.0615 0.231338,-0.0644 0.459748,-0.19034 v 0.49781 q -0.225481,0.10542 -0.468533,0.15813 -0.240123,0.0527 -0.512458,0.0527 -0.740868,0 -1.177189,-0.4656 -0.436321,-0.46561 -0.436321,-1.25626 0,-0.80236 0.439249,-1.26211 0.442178,-0.45975 1.209401,-0.45975 0.248908,0 0.486103,0.0527 0.237195,0.0498 0.459748,0.15228 z"
         style="font-size:5.99722242px;fill:#b3b3b3;stroke-width:0.26458332px"
         id="path5635" />
    </g>
    <g
       aria-label="abc"
       style="font-style:normal;font-variant:normal;font-weight:normal;font-stretch:normal;font-size:2.82222223px;line-height:125%;font-family:FontAwesome;-inkscape-font-specification:FontAwesome;letter-spacing:0px;word-spacing:0px;fill:#b3b3b3;fill-opacity:1;stroke:none;stroke-width:0.26458332px;stroke-linecap:butt;stroke-linejoin:miter;stroke-opacity:1"
       id="text1844-8-2">
      <path
         d="m 37.957479,275.26386 q -0.653018,0 -0.904854,0.14934 -0.251837,0.14935 -0.251837,0.50953 0,0.28698 0.187414,0.45682 0.190341,0.16691 0.515386,0.16691 0.448035,0 0.717441,-0.31626 0.272335,-0.31918 0.272335,-0.84628 v -0.12006 z m 1.074698,-0.22256 v 1.87121 h -0.538813 v -0.49782 q -0.184485,0.29869 -0.459748,0.44218 -0.275263,0.14056 -0.673516,0.14056 -0.503673,0 -0.802363,-0.28112 -0.295762,-0.28405 -0.295762,-0.75844 0,-0.55345 0.36897,-0.83457 0.371898,-0.28112 1.106909,-0.28112 h 0.75551 v -0.0527 q 0,-0.3719 -0.24598,-0.57396 -0.243052,-0.20498 -0.68523,-0.20498 -0.281119,0 -0.547598,0.0673 -0.266478,0.0674 -0.512457,0.20206 v -0.49782 q 0.295761,-0.1142 0.573952,-0.16984 0.278192,-0.0586 0.541742,-0.0586 0.711584,0 1.062984,0.36897 0.3514,0.36897 0.3514,1.11862 z"
         style="font-size:5.99722242px;fill:#b3b3b3;stroke-width:0.26458332px"
         id="path5624" />
      <path
         d="m 42.499321,275.27557 q 0,-0.59445 -0.24598,-0.93121 -0.243051,-0.33969 -0.670588,-0.33969 -0.427536,0 -0.673516,0.33969 -0.243051,0.33676 -0.243051,0.93121 0,0.59445 0.243051,0.93414 0.24598,0.33675 0.673516,0.33675 0.427537,0 0.670588,-0.33675 0.24598,-0.33969 0.24598,-0.93414 z m -1.833135,-1.14498 q 0.169843,-0.29283 0.427536,-0.43339 0.260621,-0.14349 0.620806,-0.14349 0.59738,0 0.969278,0.47439 0.374826,0.47439 0.374826,1.24747 0,0.77308 -0.374826,1.24747 -0.371898,0.47439 -0.969278,0.47439 -0.360185,0 -0.620806,-0.14056 -0.257693,-0.14349 -0.427536,-0.43632 v 0.49196 h -0.541742 v -4.55649 h 0.541742 z"
         style="font-size:5.99722242px;fill:#b3b3b3;stroke-width:0.26458332px"
         id="path5626" />
      <path
         d="m 46.312008,273.75869 v 0.50368 q -0.22841,-0.12592 -0.459748,-0.18742 -0.22841,-0.0644 -0.462676,-0.0644 -0.524171,0 -0.814076,0.33383 -0.289905,0.3309 -0.289905,0.93121 0,0.60031 0.289905,0.93414 0.289905,0.3309 0.814076,0.3309 0.234266,0 0.462676,-0.0615 0.231338,-0.0644 0.459748,-0.19034 v 0.49782 q -0.225481,0.10542 -0.468533,0.15813 -0.240123,0.0527 -0.512458,0.0527 -0.740868,0 -1.177189,-0.46561 -0.436321,-0.4656 -0.436321,-1.25625 0,-0.80236 0.439249,-1.26211 0.442178,-0.45975 1.209401,-0.45975 0.248908,0 0.486103,0.0527 0.237195,0.0498 0.459748,0.15227 z"
         style="font-size:5.99722242px;fill:#b3b3b3;stroke-width:0.26458332px"
         id="path5628" />
    </g>
    <g
       aria-label="abc"
       style="font-style:normal;font-variant:normal;font-weight:normal;font-stretch:normal;font-size:2.82222223px;line-height:125%;font-family:FontAwesome;-inkscape-font-specification:FontAwesome;letter-spacing:0px;word-spacing:0px;fill:#b3b3b3;fill-opacity:1;stroke:none;stroke-width:0.26458332px;stroke-linecap:butt;stroke-linejoin:miter;stroke-opacity:1"
       id="text1844-8-7">
      <path
         d="m 37.957479,260.72784 q -0.653018,0 -0.904854,0.14935 -0.251837,0.14934 -0.251837,0.50953 0,0.28698 0.187414,0.45682 0.190341,0.16691 0.515386,0.16691 0.448035,0 0.717441,-0.31626 0.272335,-0.31918 0.272335,-0.84628 v -0.12007 z m 1.074698,-0.22255 v 1.87121 h -0.538813 v -0.49782 q -0.184485,0.29869 -0.459748,0.44218 -0.275263,0.14056 -0.673516,0.14056 -0.503673,0 -0.802363,-0.28112 -0.295762,-0.28405 -0.295762,-0.75844 0,-0.55346 0.36897,-0.83458 0.371898,-0.28111 1.106909,-0.28111 h 0.75551 v -0.0527 q 0,-0.3719 -0.24598,-0.57396 -0.243052,-0.20498 -0.68523,-0.20498 -0.281119,0 -0.547598,0.0674 -0.266478,0.0673 -0.512457,0.20206 v -0.49782 q 0.295761,-0.11421 0.573952,-0.16984 0.278192,-0.0586 0.541742,-0.0586 0.711584,0 1.062984,0.36897 0.3514,0.36897 0.3514,1.11862 z"
         style="font-size:5.99722242px;fill:#b3b3b3;stroke-width:0.26458332px"
         id="path5617" />
      <path
         d="m 42.499321,260.73956 q 0,-0.59445 -0.24598,-0.93121 -0.243051,-0.33969 -0.670588,-0.33969 -0.427536,0 -0.673516,0.33969 -0.243051,0.33676 -0.243051,0.93121 0,0.59445 0.243051,0.93414 0.24598,0.33675 0.673516,0.33675 0.427537,0 0.670588,-0.33675 0.24598,-0.33969 0.24598,-0.93414 z m -1.833135,-1.14498 q 0.169843,-0.29283 0.427536,-0.43339 0.260621,-0.14349 0.620806,-0.14349 0.59738,0 0.969278,0.47439 0.374826,0.47439 0.374826,1.24747 0,0.77308 -0.374826,1.24747 -0.371898,0.47439 -0.969278,0.47439 -0.360185,0 -0.620806,-0.14056 -0.257693,-0.14349 -0.427536,-0.43632 v 0.49196 h -0.541742 v -4.55649 h 0.541742 z"
         style="font-size:5.99722242px;fill:#b3b3b3;stroke-width:0.26458332px"
         id="path5619" />
      <path
         d="m 46.312008,259.22268 v 0.50368 q -0.22841,-0.12592 -0.459748,-0.18742 -0.22841,-0.0644 -0.462676,-0.0644 -0.524171,0 -0.814076,0.33383 -0.289905,0.3309 -0.289905,0.93121 0,0.60031 0.289905,0.93414 0.289905,0.3309 0.814076,0.3309 0.234266,0 0.462676,-0.0615 0.231338,-0.0644 0.459748,-0.19034 v 0.49782 q -0.225481,0.10542 -0.468533,0.15813 -0.240123,0.0527 -0.512458,0.0527 -0.740868,0 -1.177189,-0.46561 -0.436321,-0.4656 -0.436321,-1.25625 0,-0.80236 0.439249,-1.26211 0.442178,-0.45975 1.209401,-0.45975 0.248908,0 0.486103,0.0527 0.237195,0.0498 0.459748,0.15227 z"
         style="font-size:5.99722242px;fill:#b3b3b3;stroke-width:0.26458332px"
         id="path5621" />
    </g>
    <g
       aria-label="abc"
       style="font-style:normal;font-variant:normal;font-weight:normal;font-stretch:normal;font-size:2.82222223px;line-height:125%;font-family:FontAwesome;-inkscape-font-specification:FontAwesome;letter-spacing:0px;word-spacing:0px;fill:#b3b3b3;fill-opacity:1;stroke:none;stroke-width:0.26458332px;stroke-linecap:butt;stroke-linejoin:miter;stroke-opacity:1"
       id="text1844-8-9">
      <path
         d="m 37.957479,245.90024 q -0.653018,0 -0.904854,0.14934 -0.251837,0.14935 -0.251837,0.50953 0,0.28698 0.187414,0.45682 0.190341,0.16692 0.515386,0.16692 0.448035,0 0.717441,-0.31626 0.272335,-0.31919 0.272335,-0.84629 v -0.12006 z m 1.074698,-0.22255 v 1.8712 h -0.538813 v -0.49782 q -0.184485,0.29869 -0.459748,0.44218 -0.275263,0.14056 -0.673516,0.14056 -0.503673,0 -0.802363,-0.28112 -0.295762,-0.28405 -0.295762,-0.75844 0,-0.55345 0.36897,-0.83457 0.371898,-0.28112 1.106909,-0.28112 h 0.75551 v -0.0527 q 0,-0.3719 -0.24598,-0.57395 -0.243052,-0.20499 -0.68523,-0.20499 -0.281119,0 -0.547598,0.0674 -0.266478,0.0674 -0.512457,0.20206 v -0.49782 q 0.295761,-0.1142 0.573952,-0.16984 0.278192,-0.0586 0.541742,-0.0586 0.711584,0 1.062984,0.36897 0.3514,0.36897 0.3514,1.11863 z"
         style="font-size:5.99722242px;fill:#b3b3b3;stroke-width:0.26458332px"
         id="path5610" />
      <path
         d="m 42.499321,245.91195 q 0,-0.59445 -0.24598,-0.93121 -0.243051,-0.33968 -0.670588,-0.33968 -0.427536,0 -0.673516,0.33968 -0.243051,0.33676 -0.243051,0.93121 0,0.59445 0.243051,0.93414 0.24598,0.33676 0.673516,0.33676 0.427537,0 0.670588,-0.33676 0.24598,-0.33969 0.24598,-0.93414 z m -1.833135,-1.14498 q 0.169843,-0.29283 0.427536,-0.43339 0.260621,-0.14349 0.620806,-0.14349 0.59738,0 0.969278,0.47439 0.374826,0.47439 0.374826,1.24747 0,0.77308 -0.374826,1.24747 -0.371898,0.47439 -0.969278,0.47439 -0.360185,0 -0.620806,-0.14056 -0.257693,-0.14349 -0.427536,-0.43632 v 0.49196 h -0.541742 v -4.55648 h 0.541742 z"
         style="font-size:5.99722242px;fill:#b3b3b3;stroke-width:0.26458332px"
         id="path5612" />
      <path
         d="m 46.312008,244.39508 v 0.50367 q -0.22841,-0.12592 -0.459748,-0.18741 -0.22841,-0.0644 -0.462676,-0.0644 -0.524171,0 -0.814076,0.33383 -0.289905,0.3309 -0.289905,0.93121 0,0.60031 0.289905,0.93414 0.289905,0.3309 0.814076,0.3309 0.234266,0 0.462676,-0.0615 0.231338,-0.0644 0.459748,-0.19035 v 0.49782 q -0.225481,0.10542 -0.468533,0.15813 -0.240123,0.0527 -0.512458,0.0527 -0.740868,0 -1.177189,-0.4656 -0.436321,-0.46561 -0.436321,-1.25626 0,-0.80236 0.439249,-1.26211 0.442178,-0.45975 1.209401,-0.45975 0.248908,0 0.486103,0.0527 0.237195,0.0498 0.459748,0.15228 z"
         style="font-size:5.99722242px;fill:#b3b3b3;stroke-width:0.26458332px"
         id="path5614" />
    </g>
    <g
       aria-label="abc"
       style="font-style:normal;font-variant:normal;font-weight:normal;font-stretch:normal;font-size:2.82222223px;line-height:125%;font-family:FontAwesome;-inkscape-font-specification:FontAwesome;letter-spacing:0px;word-spacing:0px;fill:#b3b3b3;fill-opacity:1;stroke:none;stroke-width:0.26458332px;stroke-linecap:butt;stroke-linejoin:miter;stroke-opacity:1"
       id="text1844-8-28">
      <path
         d="m 37.957479,231.21843 q -0.653018,0 -0.904854,0.14935 -0.251837,0.14934 -0.251837,0.50952 0,0.28698 0.187414,0.45682 0.190341,0.16692 0.515386,0.16692 0.448035,0 0.717441,-0.31626 0.272335,-0.31919 0.272335,-0.84629 v -0.12006 z m 1.074698,-0.22255 v 1.8712 h -0.538813 v -0.49782 q -0.184485,0.29869 -0.459748,0.44218 -0.275263,0.14056 -0.673516,0.14056 -0.503673,0 -0.802363,-0.28112 -0.295762,-0.28405 -0.295762,-0.75844 0,-0.55345 0.36897,-0.83457 0.371898,-0.28112 1.106909,-0.28112 h 0.75551 v -0.0527 q 0,-0.3719 -0.24598,-0.57395 -0.243052,-0.20499 -0.68523,-0.20499 -0.281119,0 -0.547598,0.0674 -0.266478,0.0674 -0.512457,0.20205 v -0.49782 q 0.295761,-0.1142 0.573952,-0.16984 0.278192,-0.0586 0.541742,-0.0586 0.711584,0 1.062984,0.36897 0.3514,0.36897 0.3514,1.11863 z"
         style="font-size:5.99722242px;fill:#b3b3b3;stroke-width:0.26458332px"
         id="path5603" />
      <path
         d="m 42.499321,231.23014 q 0,-0.59445 -0.24598,-0.93121 -0.243051,-0.33968 -0.670588,-0.33968 -0.427536,0 -0.673516,0.33968 -0.243051,0.33676 -0.243051,0.93121 0,0.59445 0.243051,0.93414 0.24598,0.33676 0.673516,0.33676 0.427537,0 0.670588,-0.33676 0.24598,-0.33969 0.24598,-0.93414 z m -1.833135,-1.14497 q 0.169843,-0.29284 0.427536,-0.4334 0.260621,-0.14349 0.620806,-0.14349 0.59738,0 0.969278,0.47439 0.374826,0.47439 0.374826,1.24747 0,0.77308 -0.374826,1.24747 -0.371898,0.47439 -0.969278,0.47439 -0.360185,0 -0.620806,-0.14056 -0.257693,-0.14349 -0.427536,-0.43632 v 0.49196 h -0.541742 v -4.55648 h 0.541742 z"
         style="font-size:5.99722242px;fill:#b3b3b3;stroke-width:0.26458332px"
         id="path5605" />
      <path
         d="m 46.312008,229.71327 v 0.50367 q -0.22841,-0.12592 -0.459748,-0.18741 -0.22841,-0.0644 -0.462676,-0.0644 -0.524171,0 -0.814076,0.33383 -0.289905,0.33091 -0.289905,0.93121 0,0.60031 0.289905,0.93414 0.289905,0.3309 0.814076,0.3309 0.234266,0 0.462676,-0.0615 0.231338,-0.0644 0.459748,-0.19034 v 0.49781 q -0.225481,0.10542 -0.468533,0.15813 -0.240123,0.0527 -0.512458,0.0527 -0.740868,0 -1.177189,-0.4656 -0.436321,-0.46561 -0.436321,-1.25626 0,-0.80236 0.439249,-1.26211 0.442178,-0.45975 1.209401,-0.45975 0.248908,0 0.486103,0.0527 0.237195,0.0498 0.459748,0.15228 z"
         style="font-size:5.99722242px;fill:#b3b3b3;stroke-width:0.26458332px"
         id="path5607" />
    </g>
    <g
       aria-label="123"
       style="font-style:normal;font-variant:normal;font-weight:normal;font-stretch:normal;font-size:2.82222223px;line-height:125%;font-family:FontAwesome;-inkscape-font-specification:FontAwesome;letter-spacing:0px;word-spacing:0px;fill:#b3b3b3;fill-opacity:1;stroke:none;stroke-width:0.26458332px;stroke-linecap:butt;stroke-linejoin:miter;stroke-opacity:1"
       id="text1844-6-3">
      <path
         d="m 63.603354,291.04381 h 0.96635 v -3.33537 l -1.051271,0.21084 v -0.53881 l 1.045414,-0.21084 h 0.591523 v 3.87418 h 0.966349 v 0.49782 h -2.518365 z"
         style="font-size:5.99722242px;fill:#b3b3b3;stroke-width:0.26458332px"
         id="path5596" />
      <path
         d="m 67.828936,291.04381 h 2.064474 v 0.49782 h -2.776058 v -0.49782 q 0.336758,-0.34847 0.916567,-0.93414 0.582738,-0.58859 0.732083,-0.75844 0.284048,-0.31918 0.395325,-0.53881 0.114205,-0.22255 0.114205,-0.43632 0,-0.34847 -0.24598,-0.5681 -0.243051,-0.21962 -0.635448,-0.21962 -0.278191,0 -0.588594,0.0966 -0.307475,0.0966 -0.658875,0.29284 v -0.59738 q 0.357256,-0.14349 0.66766,-0.2167 0.310403,-0.0732 0.568096,-0.0732 0.679373,0 1.083482,0.33969 0.40411,0.33969 0.40411,0.90778 0,0.26941 -0.102492,0.51246 -0.09956,0.24012 -0.366041,0.5681 -0.07321,0.0849 -0.465605,0.49196 -0.392396,0.40411 -1.106909,1.13326 z"
         style="font-size:5.99722242px;fill:#b3b3b3;stroke-width:0.26458332px"
         id="path5598" />
      <path
         d="m 72.930089,289.18432 q 0.424608,0.0908 0.661803,0.37775 0.240123,0.28698 0.240123,0.70866 0,0.64716 -0.445106,1.00149 -0.445106,0.35433 -1.265039,0.35433 -0.275263,0 -0.568096,-0.0556 -0.289905,-0.0527 -0.600308,-0.16106 v -0.57102 q 0.245979,0.14348 0.538813,0.21669 0.292833,0.0732 0.612021,0.0732 0.556383,0 0.846288,-0.21962 0.292833,-0.21963 0.292833,-0.63838 0,-0.38654 -0.272335,-0.60324 -0.269407,-0.21962 -0.752581,-0.21962 h -0.50953 v -0.4861 h 0.532956 q 0.436322,0 0.66766,-0.17278 0.231338,-0.1757 0.231338,-0.50367 0,-0.33676 -0.240123,-0.51538 -0.237195,-0.18156 -0.682301,-0.18156 -0.243052,0 -0.521243,0.0527 -0.278192,0.0527 -0.612021,0.16399 v -0.5271 q 0.336758,-0.0937 0.629591,-0.14056 0.295761,-0.0469 0.556383,-0.0469 0.673516,0 1.065912,0.30748 0.392397,0.30454 0.392397,0.82579 0,0.36311 -0.207912,0.61495 -0.207911,0.2489 -0.591523,0.34554 z"
         style="font-size:5.99722242px;fill:#b3b3b3;stroke-width:0.26458332px"
         id="path5600" />
    </g>
    <g
       aria-label="abc"
       style="font-style:normal;font-variant:normal;font-weight:normal;font-stretch:normal;font-size:2.82222223px;line-height:125%;font-family:FontAwesome;-inkscape-font-specification:FontAwesome;letter-spacing:0px;word-spacing:0px;fill:#b3b3b3;fill-opacity:1;stroke:none;stroke-width:0.26458332px;stroke-linecap:butt;stroke-linejoin:miter;stroke-opacity:1"
       id="text1844-8-1">
      <path
         d="m 92.73369,289.94568 q -0.653018,0 -0.904854,0.14934 -0.251837,0.14935 -0.251837,0.50953 0,0.28698 0.187413,0.45682 0.190342,0.16692 0.515387,0.16692 0.448034,0 0.717441,-0.31626 0.272335,-0.31919 0.272335,-0.84629 v -0.12006 z m 1.074698,-0.22255 v 1.8712 h -0.538813 v -0.49782 q -0.184485,0.29869 -0.459748,0.44218 -0.275264,0.14056 -0.673517,0.14056 -0.503673,0 -0.802362,-0.28112 -0.295762,-0.28405 -0.295762,-0.75844 0,-0.55345 0.36897,-0.83457 0.371898,-0.28112 1.106909,-0.28112 h 0.75551 v -0.0527 q 0,-0.3719 -0.24598,-0.57395 -0.243052,-0.20499 -0.68523,-0.20499 -0.28112,0 -0.547598,0.0674 -0.266478,0.0674 -0.512458,0.20205 v -0.49782 q 0.295762,-0.1142 0.573953,-0.16984 0.278192,-0.0586 0.541742,-0.0586 0.711584,0 1.062984,0.36897 0.3514,0.36897 0.3514,1.11863 z"
         style="font-size:5.99722242px;fill:#b3b3b3;stroke-width:0.26458332px"
         id="path5589" />
      <path
         d="m 97.275532,289.95739 q 0,-0.59445 -0.24598,-0.93121 -0.243052,-0.33968 -0.670588,-0.33968 -0.427536,0 -0.673516,0.33968 -0.243052,0.33676 -0.243052,0.93121 0,0.59445 0.243052,0.93414 0.24598,0.33676 0.673516,0.33676 0.427536,0 0.670588,-0.33676 0.24598,-0.33969 0.24598,-0.93414 z m -1.833136,-1.14497 q 0.169844,-0.29284 0.427537,-0.4334 0.260621,-0.14349 0.620806,-0.14349 0.597379,0 0.969278,0.47439 0.374826,0.47439 0.374826,1.24747 0,0.77308 -0.374826,1.24747 -0.371899,0.47439 -0.969278,0.47439 -0.360185,0 -0.620806,-0.14056 -0.257693,-0.14349 -0.427537,-0.43632 v 0.49196 h -0.541741 v -4.55648 h 0.541741 z"
         style="font-size:5.99722242px;fill:#b3b3b3;stroke-width:0.26458332px"
         id="path5591" />
      <path
         d="m 101.08822,288.44052 v 0.50367 q -0.22841,-0.12592 -0.45975,-0.18741 -0.22841,-0.0644 -0.46268,-0.0644 -0.524167,0 -0.814071,0.33383 -0.289905,0.3309 -0.289905,0.93121 0,0.60031 0.289905,0.93414 0.289904,0.3309 0.814071,0.3309 0.23427,0 0.46268,-0.0615 0.23134,-0.0644 0.45975,-0.19034 v 0.49781 q -0.22548,0.10542 -0.46853,0.15813 -0.24013,0.0527 -0.51246,0.0527 -0.74087,0 -1.177191,-0.4656 -0.436322,-0.46561 -0.436322,-1.25626 0,-0.80236 0.43925,-1.26211 0.442178,-0.45975 1.209403,-0.45975 0.24891,0 0.4861,0.0527 0.2372,0.0498 0.45975,0.15228 z"
         style="font-size:5.99722242px;fill:#b3b3b3;stroke-width:0.26458332px"
         id="path5593" />
    </g>
    <g
       aria-label="abc"
       style="font-style:normal;font-variant:normal;font-weight:normal;font-stretch:normal;font-size:2.82222223px;line-height:125%;font-family:FontAwesome;-inkscape-font-specification:FontAwesome;letter-spacing:0px;word-spacing:0px;fill:#b3b3b3;fill-opacity:1;stroke:none;stroke-width:0.26458332px;stroke-linecap:butt;stroke-linejoin:miter;stroke-opacity:1"
       id="text1844-8-2-6">
      <path
         d="m 92.73369,275.26386 q -0.653018,0 -0.904854,0.14934 -0.251837,0.14935 -0.251837,0.50953 0,0.28698 0.187413,0.45682 0.190342,0.16691 0.515387,0.16691 0.448034,0 0.717441,-0.31626 0.272335,-0.31918 0.272335,-0.84628 v -0.12006 z m 1.074698,-0.22256 v 1.87121 h -0.538813 v -0.49782 q -0.184485,0.29869 -0.459748,0.44218 -0.275264,0.14056 -0.673517,0.14056 -0.503673,0 -0.802362,-0.28112 -0.295762,-0.28405 -0.295762,-0.75844 0,-0.55345 0.36897,-0.83457 0.371898,-0.28112 1.106909,-0.28112 h 0.75551 v -0.0527 q 0,-0.3719 -0.24598,-0.57396 -0.243052,-0.20498 -0.68523,-0.20498 -0.28112,0 -0.547598,0.0673 -0.266478,0.0674 -0.512458,0.20206 v -0.49782 q 0.295762,-0.1142 0.573953,-0.16984 0.278192,-0.0586 0.541742,-0.0586 0.711584,0 1.062984,0.36897 0.3514,0.36897 0.3514,1.11862 z"
         style="font-size:5.99722242px;fill:#b3b3b3;stroke-width:0.26458332px"
         id="path5582" />
      <path
         d="m 97.275532,275.27557 q 0,-0.59445 -0.24598,-0.93121 -0.243052,-0.33969 -0.670588,-0.33969 -0.427536,0 -0.673516,0.33969 -0.243052,0.33676 -0.243052,0.93121 0,0.59445 0.243052,0.93414 0.24598,0.33675 0.673516,0.33675 0.427536,0 0.670588,-0.33675 0.24598,-0.33969 0.24598,-0.93414 z m -1.833136,-1.14498 q 0.169844,-0.29283 0.427537,-0.43339 0.260621,-0.14349 0.620806,-0.14349 0.597379,0 0.969278,0.47439 0.374826,0.47439 0.374826,1.24747 0,0.77308 -0.374826,1.24747 -0.371899,0.47439 -0.969278,0.47439 -0.360185,0 -0.620806,-0.14056 -0.257693,-0.14349 -0.427537,-0.43632 v 0.49196 h -0.541741 v -4.55649 h 0.541741 z"
         style="font-size:5.99722242px;fill:#b3b3b3;stroke-width:0.26458332px"
         id="path5584" />
      <path
         d="m 101.08822,273.75869 v 0.50368 q -0.22841,-0.12592 -0.45975,-0.18742 -0.22841,-0.0644 -0.46268,-0.0644 -0.524167,0 -0.814071,0.33383 -0.289905,0.3309 -0.289905,0.93121 0,0.60031 0.289905,0.93414 0.289904,0.3309 0.814071,0.3309 0.23427,0 0.46268,-0.0615 0.23134,-0.0644 0.45975,-0.19034 v 0.49782 q -0.22548,0.10542 -0.46853,0.15813 -0.24013,0.0527 -0.51246,0.0527 -0.74087,0 -1.177191,-0.46561 -0.436322,-0.4656 -0.436322,-1.25625 0,-0.80236 0.43925,-1.26211 0.442178,-0.45975 1.209403,-0.45975 0.24891,0 0.4861,0.0527 0.2372,0.0498 0.45975,0.15227 z"
         style="font-size:5.99722242px;fill:#b3b3b3;stroke-width:0.26458332px"
         id="path5586" />
    </g>
    <g
       aria-label="abc"
       style="font-style:normal;font-variant:normal;font-weight:normal;font-stretch:normal;font-size:2.82222223px;line-height:125%;font-family:FontAwesome;-inkscape-font-specification:FontAwesome;letter-spacing:0px;word-spacing:0px;fill:#b3b3b3;fill-opacity:1;stroke:none;stroke-width:0.26458332px;stroke-linecap:butt;stroke-linejoin:miter;stroke-opacity:1"
       id="text1844-8-7-2">
      <path
         d="m 92.73369,260.72784 q -0.653018,0 -0.904854,0.14935 -0.251837,0.14934 -0.251837,0.50953 0,0.28698 0.187413,0.45682 0.190342,0.16691 0.515387,0.16691 0.448034,0 0.717441,-0.31626 0.272335,-0.31918 0.272335,-0.84628 v -0.12007 z m 1.074698,-0.22255 v 1.87121 h -0.538813 v -0.49782 q -0.184485,0.29869 -0.459748,0.44218 -0.275264,0.14056 -0.673517,0.14056 -0.503673,0 -0.802362,-0.28112 -0.295762,-0.28405 -0.295762,-0.75844 0,-0.55346 0.36897,-0.83458 0.371898,-0.28111 1.106909,-0.28111 h 0.75551 v -0.0527 q 0,-0.3719 -0.24598,-0.57396 -0.243052,-0.20498 -0.68523,-0.20498 -0.28112,0 -0.547598,0.0674 -0.266478,0.0673 -0.512458,0.20206 v -0.49782 q 0.295762,-0.11421 0.573953,-0.16984 0.278192,-0.0586 0.541742,-0.0586 0.711584,0 1.062984,0.36897 0.3514,0.36897 0.3514,1.11862 z"
         style="font-size:5.99722242px;fill:#b3b3b3;stroke-width:0.26458332px"
         id="path5575" />
      <path
         d="m 97.275532,260.73956 q 0,-0.59445 -0.24598,-0.93121 -0.243052,-0.33969 -0.670588,-0.33969 -0.427536,0 -0.673516,0.33969 -0.243052,0.33676 -0.243052,0.93121 0,0.59445 0.243052,0.93414 0.24598,0.33675 0.673516,0.33675 0.427536,0 0.670588,-0.33675 0.24598,-0.33969 0.24598,-0.93414 z m -1.833136,-1.14498 q 0.169844,-0.29283 0.427537,-0.43339 0.260621,-0.14349 0.620806,-0.14349 0.597379,0 0.969278,0.47439 0.374826,0.47439 0.374826,1.24747 0,0.77308 -0.374826,1.24747 -0.371899,0.47439 -0.969278,0.47439 -0.360185,0 -0.620806,-0.14056 -0.257693,-0.14349 -0.427537,-0.43632 v 0.49196 h -0.541741 v -4.55649 h 0.541741 z"
         style="font-size:5.99722242px;fill:#b3b3b3;stroke-width:0.26458332px"
         id="path5577" />
      <path
         d="m 101.08822,259.22268 v 0.50368 q -0.22841,-0.12592 -0.45975,-0.18742 -0.22841,-0.0644 -0.46268,-0.0644 -0.524167,0 -0.814071,0.33383 -0.289905,0.3309 -0.289905,0.93121 0,0.60031 0.289905,0.93414 0.289904,0.3309 0.814071,0.3309 0.23427,0 0.46268,-0.0615 0.23134,-0.0644 0.45975,-0.19034 v 0.49782 q -0.22548,0.10542 -0.46853,0.15813 -0.24013,0.0527 -0.51246,0.0527 -0.74087,0 -1.177191,-0.46561 -0.436322,-0.4656 -0.436322,-1.25625 0,-0.80236 0.43925,-1.26211 0.442178,-0.45975 1.209403,-0.45975 0.24891,0 0.4861,0.0527 0.2372,0.0498 0.45975,0.15227 z"
         style="font-size:5.99722242px;fill:#b3b3b3;stroke-width:0.26458332px"
         id="path5579" />
    </g>
    <g
       aria-label="abc"
       style="font-style:normal;font-variant:normal;font-weight:normal;font-stretch:normal;font-size:2.82222223px;line-height:125%;font-family:FontAwesome;-inkscape-font-specification:FontAwesome;letter-spacing:0px;word-spacing:0px;fill:#b3b3b3;fill-opacity:1;stroke:none;stroke-width:0.26458332px;stroke-linecap:butt;stroke-linejoin:miter;stroke-opacity:1"
       id="text1844-8-9-6">
      <path
         d="m 92.73369,245.90024 q -0.653018,0 -0.904854,0.14934 -0.251837,0.14935 -0.251837,0.50953 0,0.28698 0.187413,0.45682 0.190342,0.16692 0.515387,0.16692 0.448034,0 0.717441,-0.31626 0.272335,-0.31919 0.272335,-0.84629 v -0.12006 z m 1.074698,-0.22255 v 1.8712 h -0.538813 v -0.49782 q -0.184485,0.29869 -0.459748,0.44218 -0.275264,0.14056 -0.673517,0.14056 -0.503673,0 -0.802362,-0.28112 -0.295762,-0.28405 -0.295762,-0.75844 0,-0.55345 0.36897,-0.83457 0.371898,-0.28112 1.106909,-0.28112 h 0.75551 v -0.0527 q 0,-0.3719 -0.24598,-0.57395 -0.243052,-0.20499 -0.68523,-0.20499 -0.28112,0 -0.547598,0.0674 -0.266478,0.0674 -0.512458,0.20206 v -0.49782 q 0.295762,-0.1142 0.573953,-0.16984 0.278192,-0.0586 0.541742,-0.0586 0.711584,0 1.062984,0.36897 0.3514,0.36897 0.3514,1.11863 z"
         style="font-size:5.99722242px;fill:#b3b3b3;stroke-width:0.26458332px"
         id="path5568" />
      <path
         d="m 97.275532,245.91195 q 0,-0.59445 -0.24598,-0.93121 -0.243052,-0.33968 -0.670588,-0.33968 -0.427536,0 -0.673516,0.33968 -0.243052,0.33676 -0.243052,0.93121 0,0.59445 0.243052,0.93414 0.24598,0.33676 0.673516,0.33676 0.427536,0 0.670588,-0.33676 0.24598,-0.33969 0.24598,-0.93414 z m -1.833136,-1.14498 q 0.169844,-0.29283 0.427537,-0.43339 0.260621,-0.14349 0.620806,-0.14349 0.597379,0 0.969278,0.47439 0.374826,0.47439 0.374826,1.24747 0,0.77308 -0.374826,1.24747 -0.371899,0.47439 -0.969278,0.47439 -0.360185,0 -0.620806,-0.14056 -0.257693,-0.14349 -0.427537,-0.43632 v 0.49196 h -0.541741 v -4.55648 h 0.541741 z"
         style="font-size:5.99722242px;fill:#b3b3b3;stroke-width:0.26458332px"
         id="path5570" />
      <path
         d="m 101.08822,244.39508 v 0.50367 q -0.22841,-0.12592 -0.45975,-0.18741 -0.22841,-0.0644 -0.46268,-0.0644 -0.524167,0 -0.814071,0.33383 -0.289905,0.3309 -0.289905,0.93121 0,0.60031 0.289905,0.93414 0.289904,0.3309 0.814071,0.3309 0.23427,0 0.46268,-0.0615 0.23134,-0.0644 0.45975,-0.19035 v 0.49782 q -0.22548,0.10542 -0.46853,0.15813 -0.24013,0.0527 -0.51246,0.0527 -0.74087,0 -1.177191,-0.4656 -0.436322,-0.46561 -0.436322,-1.25626 0,-0.80236 0.43925,-1.26211 0.442178,-0.45975 1.209403,-0.45975 0.24891,0 0.4861,0.0527 0.2372,0.0498 0.45975,0.15228 z"
         style="font-size:5.99722242px;fill:#b3b3b3;stroke-width:0.26458332px"
         id="path5572" />
    </g>
    <g
       aria-label="abc"
       style="font-style:normal;font-variant:normal;font-weight:normal;font-stretch:normal;font-size:2.82222223px;line-height:125%;font-family:FontAwesome;-inkscape-font-specification:FontAwesome;letter-spacing:0px;word-spacing:0px;fill:#b3b3b3;fill-opacity:1;stroke:none;stroke-width:0.26458332px;stroke-linecap:butt;stroke-linejoin:miter;stroke-opacity:1"
       id="text1844-8-28-5">
      <path
         d="m 92.73369,231.21843 q -0.653018,0 -0.904854,0.14935 -0.251837,0.14934 -0.251837,0.50952 0,0.28698 0.187413,0.45682 0.190342,0.16692 0.515387,0.16692 0.448034,0 0.717441,-0.31626 0.272335,-0.31919 0.272335,-0.84629 v -0.12006 z m 1.074698,-0.22255 v 1.8712 h -0.538813 v -0.49782 q -0.184485,0.29869 -0.459748,0.44218 -0.275264,0.14056 -0.673517,0.14056 -0.503673,0 -0.802362,-0.28112 -0.295762,-0.28405 -0.295762,-0.75844 0,-0.55345 0.36897,-0.83457 0.371898,-0.28112 1.106909,-0.28112 h 0.75551 v -0.0527 q 0,-0.3719 -0.24598,-0.57395 -0.243052,-0.20499 -0.68523,-0.20499 -0.28112,0 -0.547598,0.0674 -0.266478,0.0674 -0.512458,0.20205 v -0.49782 q 0.295762,-0.1142 0.573953,-0.16984 0.278192,-0.0586 0.541742,-0.0586 0.711584,0 1.062984,0.36897 0.3514,0.36897 0.3514,1.11863 z"
         style="font-size:5.99722242px;fill:#b3b3b3;stroke-width:0.26458332px"
         id="path5561" />
      <path
         d="m 97.275532,231.23014 q 0,-0.59445 -0.24598,-0.93121 -0.243052,-0.33968 -0.670588,-0.33968 -0.427536,0 -0.673516,0.33968 -0.243052,0.33676 -0.243052,0.93121 0,0.59445 0.243052,0.93414 0.24598,0.33676 0.673516,0.33676 0.427536,0 0.670588,-0.33676 0.24598,-0.33969 0.24598,-0.93414 z m -1.833136,-1.14497 q 0.169844,-0.29284 0.427537,-0.4334 0.260621,-0.14349 0.620806,-0.14349 0.597379,0 0.969278,0.47439 0.374826,0.47439 0.374826,1.24747 0,0.77308 -0.374826,1.24747 -0.371899,0.47439 -0.969278,0.47439 -0.360185,0 -0.620806,-0.14056 -0.257693,-0.14349 -0.427537,-0.43632 v 0.49196 h -0.541741 v -4.55648 h 0.541741 z"
         style="font-size:5.99722242px;fill:#b3b3b3;stroke-width:0.26458332px"
         id="path5563" />
      <path
         d="m 101.08822,229.71327 v 0.50367 q -0.22841,-0.12592 -0.45975,-0.18741 -0.22841,-0.0644 -0.46268,-0.0644 -0.524167,0 -0.814071,0.33383 -0.289905,0.33091 -0.289905,0.93121 0,0.60031 0.289905,0.93414 0.289904,0.3309 0.814071,0.3309 0.23427,0 0.46268,-0.0615 0.23134,-0.0644 0.45975,-0.19034 v 0.49781 q -0.22548,0.10542 -0.46853,0.15813 -0.24013,0.0527 -0.51246,0.0527 -0.74087,0 -1.177191,-0.4656 -0.436322,-0.46561 -0.436322,-1.25626 0,-0.80236 0.43925,-1.26211 0.442178,-0.45975 1.209403,-0.45975 0.24891,0 0.4861,0.0527 0.2372,0.0498 0.45975,0.15228 z"
         style="font-size:5.99722242px;fill:#b3b3b3;stroke-width:0.26458332px"
         id="path5565" />
    </g>
    <g
       aria-label="123"
       style="font-style:normal;font-variant:normal;font-weight:normal;font-stretch:normal;font-size:2.82222223px;line-height:125%;font-family:FontAwesome;-inkscape-font-specification:FontAwesome;letter-spacing:0px;word-spacing:0px;fill:#b3b3b3;fill-opacity:1;stroke:none;stroke-width:0.26458332px;stroke-linecap:butt;stroke-linejoin:miter;stroke-opacity:1"
       id="text1844-6-7-4">
      <path
         d="m 63.60335,276.36199 h 0.96635 v -3.33537 l -1.051271,0.21084 v -0.53882 l 1.045414,-0.21084 h 0.591523 v 3.87419 h 0.966349 v 0.49781 H 63.60335 Z"
         style="font-size:5.99722242px;fill:#b3b3b3;stroke-width:0.26458332px"
         id="path5554" />
      <path
         d="m 67.828932,276.36199 h 2.064474 v 0.49781 h -2.776058 v -0.49781 q 0.336758,-0.34848 0.916568,-0.93414 0.582737,-0.5886 0.732082,-0.75844 0.284049,-0.31919 0.395325,-0.53881 0.114205,-0.22256 0.114205,-0.43632 0,-0.34848 -0.24598,-0.5681 -0.243051,-0.21962 -0.635448,-0.21962 -0.278191,0 -0.588594,0.0966 -0.307475,0.0966 -0.658875,0.29283 v -0.59738 q 0.357257,-0.14348 0.66766,-0.21669 0.310403,-0.0732 0.568096,-0.0732 0.679373,0 1.083483,0.33969 0.404109,0.33968 0.404109,0.90778 0,0.2694 -0.102491,0.51246 -0.09956,0.24012 -0.366042,0.56809 -0.07321,0.0849 -0.465604,0.49196 -0.392397,0.40411 -1.10691,1.13327 z"
         style="font-size:5.99722242px;fill:#b3b3b3;stroke-width:0.26458332px"
         id="path5556" />
      <path
         d="m 72.930085,274.5025 q 0.424608,0.0908 0.661803,0.37775 0.240123,0.28698 0.240123,0.70866 0,0.64716 -0.445106,1.00149 -0.445106,0.35432 -1.265039,0.35432 -0.275263,0 -0.568096,-0.0556 -0.289905,-0.0527 -0.600308,-0.16106 V 276.157 q 0.24598,0.14349 0.538813,0.2167 0.292833,0.0732 0.612021,0.0732 0.556383,0 0.846288,-0.21963 0.292833,-0.21962 0.292833,-0.63837 0,-0.38654 -0.272335,-0.60324 -0.269406,-0.21962 -0.752581,-0.21962 h -0.50953 v -0.48611 h 0.532957 q 0.436321,0 0.667659,-0.17277 0.231338,-0.1757 0.231338,-0.50367 0,-0.33676 -0.240123,-0.51539 -0.237195,-0.18155 -0.682301,-0.18155 -0.243052,0 -0.521243,0.0527 -0.278192,0.0527 -0.612021,0.16398 v -0.5271 q 0.336758,-0.0937 0.629591,-0.14056 0.295761,-0.0468 0.556383,-0.0468 0.673516,0 1.065912,0.30747 0.392397,0.30455 0.392397,0.82579 0,0.36312 -0.207912,0.61495 -0.207911,0.24891 -0.591523,0.34555 z"
         style="font-size:5.99722242px;fill:#b3b3b3;stroke-width:0.26458332px"
         id="path5558" />
    </g>
    <g
       aria-label="123"
       style="font-style:normal;font-variant:normal;font-weight:normal;font-stretch:normal;font-size:2.82222223px;line-height:125%;font-family:FontAwesome;-inkscape-font-specification:FontAwesome;letter-spacing:0px;word-spacing:0px;fill:#b3b3b3;fill-opacity:1;stroke:none;stroke-width:0.26458332px;stroke-linecap:butt;stroke-linejoin:miter;stroke-opacity:1"
       id="text1844-6-7-3-6">
      <path
         d="m 63.60335,261.82598 h 0.96635 v -3.33537 l -1.051271,0.21084 v -0.53882 l 1.045414,-0.21084 h 0.591523 v 3.87419 h 0.966349 v 0.49781 H 63.60335 Z"
         style="font-size:5.99722242px;fill:#b3b3b3;stroke-width:0.26458332px"
         id="path5547" />
      <path
         d="m 67.828932,261.82598 h 2.064474 v 0.49781 h -2.776058 v -0.49781 q 0.336758,-0.34848 0.916568,-0.93414 0.582737,-0.5886 0.732082,-0.75844 0.284049,-0.31919 0.395325,-0.53881 0.114205,-0.22256 0.114205,-0.43632 0,-0.34848 -0.24598,-0.5681 -0.243051,-0.21963 -0.635448,-0.21963 -0.278191,0 -0.588594,0.0966 -0.307475,0.0966 -0.658875,0.29283 v -0.59738 q 0.357257,-0.14349 0.66766,-0.21669 0.310403,-0.0732 0.568096,-0.0732 0.679373,0 1.083483,0.33968 0.404109,0.33969 0.404109,0.90779 0,0.2694 -0.102491,0.51246 -0.09956,0.24012 -0.366042,0.56809 -0.07321,0.0849 -0.465604,0.49196 -0.392397,0.40411 -1.10691,1.13327 z"
         style="font-size:5.99722242px;fill:#b3b3b3;stroke-width:0.26458332px"
         id="path5549" />
      <path
         d="m 72.930085,259.96648 q 0.424608,0.0908 0.661803,0.37776 0.240123,0.28698 0.240123,0.70866 0,0.64716 -0.445106,1.00149 -0.445106,0.35432 -1.265039,0.35432 -0.275263,0 -0.568096,-0.0556 -0.289905,-0.0527 -0.600308,-0.16105 v -0.57103 q 0.24598,0.14349 0.538813,0.2167 0.292833,0.0732 0.612021,0.0732 0.556383,0 0.846288,-0.21963 0.292833,-0.21962 0.292833,-0.63837 0,-0.38654 -0.272335,-0.60324 -0.269406,-0.21963 -0.752581,-0.21963 h -0.50953 v -0.4861 h 0.532957 q 0.436321,0 0.667659,-0.17277 0.231338,-0.1757 0.231338,-0.50367 0,-0.33676 -0.240123,-0.51539 -0.237195,-0.18156 -0.682301,-0.18156 -0.243052,0 -0.521243,0.0527 -0.278192,0.0527 -0.612021,0.16399 v -0.5271 q 0.336758,-0.0937 0.629591,-0.14056 0.295761,-0.0469 0.556383,-0.0469 0.673516,0 1.065912,0.30747 0.392397,0.30455 0.392397,0.82579 0,0.36312 -0.207912,0.61495 -0.207911,0.24891 -0.591523,0.34554 z"
         style="font-size:5.99722242px;fill:#b3b3b3;stroke-width:0.26458332px"
         id="path5551" />
    </g>
    <g
       aria-label="123"
       style="font-style:normal;font-variant:normal;font-weight:normal;font-stretch:normal;font-size:2.82222223px;line-height:125%;font-family:FontAwesome;-inkscape-font-specification:FontAwesome;letter-spacing:0px;word-spacing:0px;fill:#b3b3b3;fill-opacity:1;stroke:none;stroke-width:0.26458332px;stroke-linecap:butt;stroke-linejoin:miter;stroke-opacity:1"
       id="text1844-6-7-9-6">
      <path
         d="M 63.60335,246.99837 H 64.5697 V 243.663 l -1.051271,0.21084 v -0.53881 l 1.045414,-0.21084 h 0.591523 v 3.87418 h 0.966349 v 0.49782 H 63.60335 Z"
         style="font-size:5.99722242px;fill:#b3b3b3;stroke-width:0.26458332px"
         id="path5540" />
      <path
         d="m 67.828932,246.99837 h 2.064474 v 0.49782 h -2.776058 v -0.49782 q 0.336758,-0.34847 0.916568,-0.93414 0.582737,-0.58859 0.732082,-0.75844 0.284049,-0.31918 0.395325,-0.53881 0.114205,-0.22255 0.114205,-0.43632 0,-0.34847 -0.24598,-0.5681 -0.243051,-0.21962 -0.635448,-0.21962 -0.278191,0 -0.588594,0.0966 -0.307475,0.0966 -0.658875,0.29284 v -0.59738 q 0.357257,-0.14349 0.66766,-0.2167 0.310403,-0.0732 0.568096,-0.0732 0.679373,0 1.083483,0.33969 0.404109,0.33968 0.404109,0.90778 0,0.26941 -0.102491,0.51246 -0.09956,0.24012 -0.366042,0.5681 -0.07321,0.0849 -0.465604,0.49195 -0.392397,0.40411 -1.10691,1.13327 z"
         style="font-size:5.99722242px;fill:#b3b3b3;stroke-width:0.26458332px"
         id="path5542" />
      <path
         d="m 72.930085,245.13888 q 0.424608,0.0908 0.661803,0.37775 0.240123,0.28698 0.240123,0.70866 0,0.64716 -0.445106,1.00149 -0.445106,0.35433 -1.265039,0.35433 -0.275263,0 -0.568096,-0.0556 -0.289905,-0.0527 -0.600308,-0.16106 v -0.57102 q 0.24598,0.14348 0.538813,0.21669 0.292833,0.0732 0.612021,0.0732 0.556383,0 0.846288,-0.21962 0.292833,-0.21963 0.292833,-0.63838 0,-0.38654 -0.272335,-0.60324 -0.269406,-0.21962 -0.752581,-0.21962 h -0.50953 v -0.4861 h 0.532957 q 0.436321,0 0.667659,-0.17278 0.231338,-0.1757 0.231338,-0.50367 0,-0.33676 -0.240123,-0.51539 -0.237195,-0.18155 -0.682301,-0.18155 -0.243052,0 -0.521243,0.0527 -0.278192,0.0527 -0.612021,0.16398 v -0.5271 q 0.336758,-0.0937 0.629591,-0.14055 0.295761,-0.0469 0.556383,-0.0469 0.673516,0 1.065912,0.30748 0.392397,0.30454 0.392397,0.82579 0,0.36311 -0.207912,0.61495 -0.207911,0.2489 -0.591523,0.34554 z"
         style="font-size:5.99722242px;fill:#b3b3b3;stroke-width:0.26458332px"
         id="path5544" />
    </g>
    <g
       aria-label="123"
       style="font-style:normal;font-variant:normal;font-weight:normal;font-stretch:normal;font-size:2.82222223px;line-height:125%;font-family:FontAwesome;-inkscape-font-specification:FontAwesome;letter-spacing:0px;word-spacing:0px;fill:#b3b3b3;fill-opacity:1;stroke:none;stroke-width:0.26458332px;stroke-linecap:butt;stroke-linejoin:miter;stroke-opacity:1"
       id="text1844-6-7-7-3">
      <path
         d="m 63.60335,232.31656 h 0.96635 v -3.33537 l -1.051271,0.21084 v -0.53881 l 1.045414,-0.21084 h 0.591523 v 3.87418 h 0.966349 v 0.49782 H 63.60335 Z"
         style="font-size:5.99722242px;fill:#b3b3b3;stroke-width:0.26458332px"
         id="path5533" />
      <path
         d="m 67.828932,232.31656 h 2.064474 v 0.49782 h -2.776058 v -0.49782 q 0.336758,-0.34847 0.916568,-0.93414 0.582737,-0.58859 0.732082,-0.75843 0.284049,-0.31919 0.395325,-0.53882 0.114205,-0.22255 0.114205,-0.43632 0,-0.34847 -0.24598,-0.5681 -0.243051,-0.21962 -0.635448,-0.21962 -0.278191,0 -0.588594,0.0966 -0.307475,0.0966 -0.658875,0.29284 v -0.59738 q 0.357257,-0.14349 0.66766,-0.2167 0.310403,-0.0732 0.568096,-0.0732 0.679373,0 1.083483,0.33969 0.404109,0.33969 0.404109,0.90778 0,0.26941 -0.102491,0.51246 -0.09956,0.24012 -0.366042,0.5681 -0.07321,0.0849 -0.465604,0.49196 -0.392397,0.40411 -1.10691,1.13326 z"
         style="font-size:5.99722242px;fill:#b3b3b3;stroke-width:0.26458332px"
         id="path5535" />
      <path
         d="m 72.930085,230.45707 q 0.424608,0.0908 0.661803,0.37775 0.240123,0.28698 0.240123,0.70866 0,0.64716 -0.445106,1.00149 -0.445106,0.35433 -1.265039,0.35433 -0.275263,0 -0.568096,-0.0556 -0.289905,-0.0527 -0.600308,-0.16106 v -0.57102 q 0.24598,0.14349 0.538813,0.21669 0.292833,0.0732 0.612021,0.0732 0.556383,0 0.846288,-0.21962 0.292833,-0.21963 0.292833,-0.63838 0,-0.38654 -0.272335,-0.60324 -0.269406,-0.21962 -0.752581,-0.21962 h -0.50953 v -0.4861 h 0.532957 q 0.436321,0 0.667659,-0.17277 0.231338,-0.1757 0.231338,-0.50368 0,-0.33676 -0.240123,-0.51538 -0.237195,-0.18156 -0.682301,-0.18156 -0.243052,0 -0.521243,0.0527 -0.278192,0.0527 -0.612021,0.16399 v -0.5271 q 0.336758,-0.0937 0.629591,-0.14056 0.295761,-0.0469 0.556383,-0.0469 0.673516,0 1.065912,0.30748 0.392397,0.30454 0.392397,0.82579 0,0.36311 -0.207912,0.61495 -0.207911,0.24891 -0.591523,0.34554 z"
         style="font-size:5.99722242px;fill:#b3b3b3;stroke-width:0.26458332px"
         id="path5537" />
    </g>
    <g
       aria-label="123"
       style="font-style:normal;font-variant:normal;font-weight:normal;font-stretch:normal;font-size:2.82222223px;line-height:125%;font-family:FontAwesome;-inkscape-font-specification:FontAwesome;letter-spacing:0px;word-spacing:0px;fill:#b3b3b3;fill-opacity:1;stroke:none;stroke-width:0.26458332px;stroke-linecap:butt;stroke-linejoin:miter;stroke-opacity:1"
       id="text1844-6-36">
      <path
         d="m 8.8271292,276.36199 h 0.9663493 v -3.33537 l -1.051271,0.21084 v -0.53882 l 1.0454143,-0.21084 h 0.5915232 v 3.87419 h 0.966349 v 0.49781 H 8.8271292 Z"
         style="font-size:5.99722242px;fill:#b3b3b3;stroke-width:0.26458332px"
         id="path5526" />
      <path
         d="m 13.052711,276.36199 h 2.064474 v 0.49781 h -2.776058 v -0.49781 q 0.336758,-0.34848 0.916567,-0.93414 0.582738,-0.5886 0.732083,-0.75844 0.284048,-0.31919 0.395325,-0.53881 0.114205,-0.22256 0.114205,-0.43632 0,-0.34848 -0.24598,-0.5681 -0.243052,-0.21962 -0.635448,-0.21962 -0.278191,0 -0.588595,0.0966 -0.307474,0.0966 -0.658874,0.29283 v -0.59738 q 0.357256,-0.14348 0.667659,-0.21669 0.310404,-0.0732 0.568097,-0.0732 0.679373,0 1.083482,0.33969 0.40411,0.33968 0.40411,0.90778 0,0.2694 -0.102492,0.51246 -0.09956,0.24012 -0.366041,0.56809 -0.07321,0.0849 -0.465605,0.49196 -0.392396,0.40411 -1.106909,1.13327 z"
         style="font-size:5.99722242px;fill:#b3b3b3;stroke-width:0.26458332px"
         id="path5528" />
      <path
         d="m 18.153864,274.5025 q 0.424608,0.0908 0.661803,0.37775 0.240123,0.28698 0.240123,0.70866 0,0.64716 -0.445106,1.00149 -0.445107,0.35432 -1.265039,0.35432 -0.275263,0 -0.568097,-0.0556 -0.289904,-0.0527 -0.600307,-0.16106 V 276.157 q 0.245979,0.14349 0.538812,0.2167 0.292834,0.0732 0.612022,0.0732 0.556383,0 0.846287,-0.21963 0.292834,-0.21962 0.292834,-0.63837 0,-0.38654 -0.272335,-0.60324 -0.269407,-0.21962 -0.752581,-0.21962 h -0.50953 v -0.48611 h 0.532956 q 0.436322,0 0.66766,-0.17277 0.231338,-0.1757 0.231338,-0.50367 0,-0.33676 -0.240123,-0.51539 -0.237195,-0.18155 -0.682301,-0.18155 -0.243052,0 -0.521243,0.0527 -0.278192,0.0527 -0.612022,0.16398 v -0.5271 q 0.336759,-0.0937 0.629592,-0.14056 0.295761,-0.0468 0.556383,-0.0468 0.673516,0 1.065912,0.30747 0.392397,0.30455 0.392397,0.82579 0,0.36312 -0.207912,0.61495 -0.207911,0.24891 -0.591523,0.34555 z"
         style="font-size:5.99722242px;fill:#b3b3b3;stroke-width:0.26458332px"
         id="path5530" />
    </g>
    <g
       aria-label="123"
       style="font-style:normal;font-variant:normal;font-weight:normal;font-stretch:normal;font-size:2.82222223px;line-height:125%;font-family:FontAwesome;-inkscape-font-specification:FontAwesome;letter-spacing:0px;word-spacing:0px;fill:#b3b3b3;fill-opacity:1;stroke:none;stroke-width:0.26458332px;stroke-linecap:butt;stroke-linejoin:miter;stroke-opacity:1"
       id="text1844-6-36-5">
      <path
         d="m 8.8271292,261.82598 h 0.9663493 v -3.33537 l -1.051271,0.21084 v -0.53882 l 1.0454143,-0.21084 h 0.5915232 v 3.87419 h 0.966349 v 0.49781 H 8.8271292 Z"
         style="font-size:5.99722242px;fill:#b3b3b3;stroke-width:0.26458332px"
         id="path5519" />
      <path
         d="m 13.052711,261.82598 h 2.064474 v 0.49781 h -2.776058 v -0.49781 q 0.336758,-0.34848 0.916567,-0.93414 0.582738,-0.5886 0.732083,-0.75844 0.284048,-0.31919 0.395325,-0.53881 0.114205,-0.22256 0.114205,-0.43632 0,-0.34848 -0.24598,-0.5681 -0.243052,-0.21963 -0.635448,-0.21963 -0.278191,0 -0.588595,0.0966 -0.307474,0.0966 -0.658874,0.29283 v -0.59738 q 0.357256,-0.14349 0.667659,-0.21669 0.310404,-0.0732 0.568097,-0.0732 0.679373,0 1.083482,0.33968 0.40411,0.33969 0.40411,0.90779 0,0.2694 -0.102492,0.51246 -0.09956,0.24012 -0.366041,0.56809 -0.07321,0.0849 -0.465605,0.49196 -0.392396,0.40411 -1.106909,1.13327 z"
         style="font-size:5.99722242px;fill:#b3b3b3;stroke-width:0.26458332px"
         id="path5521" />
      <path
         d="m 18.153864,259.96648 q 0.424608,0.0908 0.661803,0.37776 0.240123,0.28698 0.240123,0.70866 0,0.64716 -0.445106,1.00149 -0.445107,0.35432 -1.265039,0.35432 -0.275263,0 -0.568097,-0.0556 -0.289904,-0.0527 -0.600307,-0.16105 v -0.57103 q 0.245979,0.14349 0.538812,0.2167 0.292834,0.0732 0.612022,0.0732 0.556383,0 0.846287,-0.21963 0.292834,-0.21962 0.292834,-0.63837 0,-0.38654 -0.272335,-0.60324 -0.269407,-0.21963 -0.752581,-0.21963 h -0.50953 v -0.4861 h 0.532956 q 0.436322,0 0.66766,-0.17277 0.231338,-0.1757 0.231338,-0.50367 0,-0.33676 -0.240123,-0.51539 -0.237195,-0.18156 -0.682301,-0.18156 -0.243052,0 -0.521243,0.0527 -0.278192,0.0527 -0.612022,0.16399 v -0.5271 q 0.336759,-0.0937 0.629592,-0.14056 0.295761,-0.0469 0.556383,-0.0469 0.673516,0 1.065912,0.30747 0.392397,0.30455 0.392397,0.82579 0,0.36312 -0.207912,0.61495 -0.207911,0.24891 -0.591523,0.34554 z"
         style="font-size:5.99722242px;fill:#b3b3b3;stroke-width:0.26458332px"
         id="path5523" />
    </g>
    <g
       id="g1038"
       transform="translate(1.6899898,-63.66441)"
       style="fill:#b3b3b3">
      <g
         aria-label="123"
         style="font-style:normal;font-variant:normal;font-weight:normal;font-stretch:normal;font-size:2.82222223px;line-height:125%;font-family:FontAwesome;-inkscape-font-specification:FontAwesome;letter-spacing:0px;word-spacing:0px;fill:#b3b3b3;fill-opacity:1;stroke:none;stroke-width:0.26458332px;stroke-linecap:butt;stroke-linejoin:miter;stroke-opacity:1"
         id="text1844-6-36-2">
        <path
           d="m 7.1371396,310.66277 h 0.9663493 v -3.33537 l -1.0512709,0.21084 v -0.53882 l 1.0454142,-0.21084 h 0.591523 v 3.87419 h 0.9663493 v 0.49781 H 7.1371396 Z"
           style="font-size:5.99722242px;fill:#b3b3b3;stroke-width:0.26458332px"
           id="path5512" />
        <path
           d="m 11.362722,310.66277 h 2.064473 v 0.49781 h -2.776058 v -0.49781 q 0.336758,-0.34847 0.916568,-0.93414 0.582738,-0.5886 0.732083,-0.75844 0.284048,-0.31919 0.395324,-0.53881 0.114205,-0.22255 0.114205,-0.43632 0,-0.34847 -0.24598,-0.5681 -0.243051,-0.21962 -0.635448,-0.21962 -0.278191,0 -0.588594,0.0966 -0.307475,0.0966 -0.658875,0.29283 v -0.59738 q 0.357257,-0.14348 0.66766,-0.21669 0.310403,-0.0732 0.568096,-0.0732 0.679373,0 1.083483,0.33969 0.404109,0.33968 0.404109,0.90778 0,0.26941 -0.102491,0.51246 -0.09956,0.24012 -0.366042,0.56809 -0.07321,0.0849 -0.465604,0.49196 -0.392397,0.40411 -1.106909,1.13327 z"
           style="font-size:5.99722242px;fill:#b3b3b3;stroke-width:0.26458332px"
           id="path5514" />
        <path
           d="m 16.463875,308.80328 q 0.424608,0.0908 0.661802,0.37775 0.240124,0.28698 0.240124,0.70866 0,0.64716 -0.445107,1.00149 -0.445106,0.35433 -1.265039,0.35433 -0.275263,0 -0.568096,-0.0556 -0.289905,-0.0527 -0.600308,-0.16106 v -0.57103 q 0.24598,0.14349 0.538813,0.2167 0.292833,0.0732 0.612021,0.0732 0.556383,0 0.846288,-0.21963 0.292833,-0.21962 0.292833,-0.63837 0,-0.38654 -0.272335,-0.60324 -0.269406,-0.21962 -0.752581,-0.21962 h -0.50953 v -0.48611 h 0.532957 q 0.436321,0 0.667659,-0.17277 0.231338,-0.1757 0.231338,-0.50367 0,-0.33676 -0.240123,-0.51539 -0.237195,-0.18155 -0.682301,-0.18155 -0.243051,0 -0.521243,0.0527 -0.278191,0.0527 -0.612021,0.16398 v -0.5271 q 0.336758,-0.0937 0.629591,-0.14056 0.295762,-0.0469 0.556383,-0.0469 0.673516,0 1.065913,0.30747 0.392396,0.30455 0.392396,0.82579 0,0.36312 -0.207912,0.61495 -0.207911,0.24891 -0.591522,0.34555 z"
           style="font-size:5.99722242px;fill:#b3b3b3;stroke-width:0.26458332px"
           id="path5516" />
      </g>
    </g>
    <g
       aria-label="123"
       style="font-style:normal;font-variant:normal;font-weight:normal;font-stretch:normal;font-size:2.82222223px;line-height:125%;font-family:FontAwesome;-inkscape-font-specification:FontAwesome;letter-spacing:0px;word-spacing:0px;fill:#b3b3b3;fill-opacity:1;stroke:none;stroke-width:0.26458332px;stroke-linecap:butt;stroke-linejoin:miter;stroke-opacity:1"
       id="text1844-6-36-27">
      <path
         d="m 8.8271292,232.31656 h 0.9663493 v -3.33537 l -1.051271,0.21084 v -0.53881 l 1.0454143,-0.21084 h 0.5915232 v 3.87418 h 0.966349 v 0.49782 H 8.8271292 Z"
         style="font-size:5.99722242px;fill:#b3b3b3;stroke-width:0.26458332px"
         id="path5505" />
      <path
         d="m 13.052711,232.31656 h 2.064474 v 0.49782 h -2.776058 v -0.49782 q 0.336758,-0.34847 0.916567,-0.93414 0.582738,-0.58859 0.732083,-0.75843 0.284048,-0.31919 0.395325,-0.53882 0.114205,-0.22255 0.114205,-0.43632 0,-0.34847 -0.24598,-0.5681 -0.243052,-0.21962 -0.635448,-0.21962 -0.278191,0 -0.588595,0.0966 -0.307474,0.0966 -0.658874,0.29284 v -0.59738 q 0.357256,-0.14349 0.667659,-0.2167 0.310404,-0.0732 0.568097,-0.0732 0.679373,0 1.083482,0.33969 0.40411,0.33969 0.40411,0.90778 0,0.26941 -0.102492,0.51246 -0.09956,0.24012 -0.366041,0.5681 -0.07321,0.0849 -0.465605,0.49196 -0.392396,0.40411 -1.106909,1.13326 z"
         style="font-size:5.99722242px;fill:#b3b3b3;stroke-width:0.26458332px"
         id="path5507" />
      <path
         d="m 18.153864,230.45707 q 0.424608,0.0908 0.661803,0.37775 0.240123,0.28698 0.240123,0.70866 0,0.64716 -0.445106,1.00149 -0.445107,0.35433 -1.265039,0.35433 -0.275263,0 -0.568097,-0.0556 -0.289904,-0.0527 -0.600307,-0.16106 v -0.57102 q 0.245979,0.14349 0.538812,0.21669 0.292834,0.0732 0.612022,0.0732 0.556383,0 0.846287,-0.21962 0.292834,-0.21963 0.292834,-0.63838 0,-0.38654 -0.272335,-0.60324 -0.269407,-0.21962 -0.752581,-0.21962 h -0.50953 v -0.4861 h 0.532956 q 0.436322,0 0.66766,-0.17277 0.231338,-0.1757 0.231338,-0.50368 0,-0.33676 -0.240123,-0.51538 -0.237195,-0.18156 -0.682301,-0.18156 -0.243052,0 -0.521243,0.0527 -0.278192,0.0527 -0.612022,0.16399 v -0.5271 q 0.336759,-0.0937 0.629592,-0.14056 0.295761,-0.0469 0.556383,-0.0469 0.673516,0 1.065912,0.30748 0.392397,0.30454 0.392397,0.82579 0,0.36311 -0.207912,0.61495 -0.207911,0.24891 -0.591523,0.34554 z"
         style="font-size:5.99722242px;fill:#b3b3b3;stroke-width:0.26458332px"
         id="path5509" />
    </g>
    <path
       style="opacity:1;fill:none;fill-opacity:1;fill-rule:nonzero;stroke:#000000;stroke-width:0.70599997;stroke-linecap:round;stroke-linejoin:miter;stroke-miterlimit:4;stroke-dasharray:none;stroke-dashoffset:0;stroke-opacity:0.99215686"
       d="M 6.3129935,208.99554 H 103.887 c 3.29075,0 5.93997,2.64923 5.93997,5.93997 v 75.72901 c 0,3.29075 -2.64922,5.93997 -5.93997,5.93997 H 6.3129935 c -3.2907431,0 -5.93996951,-2.64922 -5.93996951,-5.93997 v -75.72901 c 0,-3.29074 2.64922641,-5.93997 5.93996951,-5.93997 z"
       id="rect1210" />
  </g>
</svg>
