<?xml version="1.0" encoding="UTF-8" standalone="no"?>
<!-- Created with Inkscape (http://www.inkscape.org/) -->

<svg
   xmlns:dc="http://purl.org/dc/elements/1.1/"
   xmlns:cc="http://creativecommons.org/ns#"
   xmlns:rdf="http://www.w3.org/1999/02/22-rdf-syntax-ns#"
   xmlns:svg="http://www.w3.org/2000/svg"
   xmlns="http://www.w3.org/2000/svg"
   xmlns:sodipodi="http://sodipodi.sourceforge.net/DTD/sodipodi-0.dtd"
   xmlns:inkscape="http://www.inkscape.org/namespaces/inkscape"
   width="990mm"
   height="165mm"
   viewBox="0 0 990 165"
   version="1.1"
   id="svg8"
   inkscape:version="0.92.3 (2405546, 2018-03-11)"
   sodipodi:docname="paperdoll.svg">
  <defs
     id="defs2" />
  <sodipodi:namedview
     id="base"
     pagecolor="#ffffff"
     bordercolor="#666666"
     borderopacity="1.0"
     inkscape:pageopacity="0.0"
     inkscape:pageshadow="2"
     inkscape:zoom="0.175"
     inkscape:cx="2296.2328"
     inkscape:cy="6.0389045"
     inkscape:document-units="mm"
     inkscape:current-layer="layer1"
     showgrid="false"
     width="100mm"
     inkscape:window-width="1600"
     inkscape:window-height="832"
     inkscape:window-x="320"
     inkscape:window-y="1080"
     inkscape:window-maximized="1"
     showguides="true" />
  <metadata
     id="metadata5">
    <rdf:RDF>
      <cc:Work
         rdf:about="">
        <dc:format>image/svg+xml</dc:format>
        <dc:type
           rdf:resource="http://purl.org/dc/dcmitype/StillImage" />
        <dc:title></dc:title>
      </cc:Work>
    </rdf:RDF>
  </metadata>
  <g
     inkscape:label="Layer 1"
     inkscape:groupmode="layer"
     id="layer1"
     transform="translate(0,-132)">
    <g
       id="g875">
      <path
         sodipodi:nodetypes="cccccccccccccccccccccccccccccccccc"
         inkscape:connector-curvature="0"
         id="path826"
         d="m 938.94757,142.30848 c 13.94248,4.02882 12.34376,15.0244 15.55429,23.86413 1.53933,3.40352 3.8539,6.90753 -5.11375,8.94904 l -4.90066,0.21306 -0.85229,5.11375 c 0.0143,3.6355 31.3933,25.23277 38.35303,26.42097 v 0 c 4.62733,0.28971 4.50563,8.726 0.42615,8.52292 -9.40521,-2.24952 -21.31209,-10.25284 -32.60007,-16.83275 0.68368,6.93797 -1.89763,12.86675 9.16211,23.01185 3.25883,3.84358 16.16026,17.04709 2.76993,18.5373 l -13.21048,0.21305 c 2.37649,11.68254 7.2117,24.18464 12.57128,36.86155 9.61203,3.98085 8.55815,8.37428 6.60524,8.94904 -3.5846,1.22002 -7.99397,0.99668 -12.35821,0.8523 -3.28253,-0.28906 -4.62552,-1.74183 -4.90067,-3.83532 l -14.18889,-41.86873 -14.18889,41.86873 c -0.27513,2.09349 -1.61813,3.54626 -4.90067,3.83532 -4.36423,0.14429 -8.7736,0.36772 -12.35819,-0.8523 -1.95293,-0.57476 -3.00679,-4.96819 6.60523,-8.94904 5.35958,-12.67691 10.1948,-25.17901 12.57128,-36.86155 l -13.21048,-0.21305 c -13.39034,-1.49021 -0.4889,-14.69372 2.76993,-18.5373 11.05973,-10.1451 8.47843,-16.07388 9.1621,-23.01185 -11.28799,6.57991 -23.19485,14.58323 -32.60006,16.83275 -4.07948,0.20308 -4.20117,-8.23321 0.42615,-8.52292 v 0 c 6.95972,-1.1882 38.33867,-22.78547 38.35303,-26.42097 l -0.8523,-5.11375 -4.90065,-0.21306 c -8.96765,-2.04151 -6.65308,-5.54552 -5.11375,-8.94904 3.21054,-8.83974 1.61181,-19.83533 15.5543,-23.86415 2.82029,-0.82529 3.87813,-0.24066 5.36596,2e-5 z"
         style="opacity:0.5;fill:#22a6b3;fill-opacity:1;stroke:#22a6b3;stroke-width:1.59443879;stroke-linecap:butt;stroke-linejoin:round;stroke-miterlimit:4;stroke-dasharray:none;stroke-opacity:1" />
      <path
         sodipodi:nodetypes="cccccccccccccccccccccccccccccccccc"
         inkscape:connector-curvature="0"
         id="path826-3"
         d="m 840.94808,142.30848 c 13.94248,4.02882 12.34376,15.0244 15.55429,23.86413 1.53933,3.40352 3.8539,6.90753 -5.11375,8.94904 l -4.90066,0.21306 -0.85229,5.11375 c 0.0143,3.6355 31.3933,25.23277 38.35303,26.42097 v 0 c 4.62732,0.28971 4.50562,8.726 0.42615,8.52292 -9.40521,-2.24952 -21.31209,-10.25284 -32.60007,-16.83275 0.68368,6.93797 -1.89763,12.86675 9.16211,23.01185 3.25883,3.84358 16.16026,17.04709 2.76993,18.5373 l -13.21048,0.21305 c 2.37649,11.68254 7.2117,24.18464 12.57128,36.86155 9.61203,3.98085 8.55815,8.37428 6.60524,8.94904 -3.5846,1.22002 -7.99397,0.99668 -12.35821,0.8523 -3.28253,-0.28906 -4.62552,-1.74183 -4.90067,-3.83532 l -14.18889,-41.86873 -14.18889,41.86873 c -0.27513,2.09349 -1.61813,3.54626 -4.90067,3.83532 -4.36423,0.14429 -8.7736,0.36772 -12.35819,-0.8523 -1.95293,-0.57476 -3.00679,-4.96819 6.60523,-8.94904 5.35958,-12.67691 10.1948,-25.17901 12.57128,-36.86155 l -13.21048,-0.21305 c -13.39034,-1.49021 -0.4889,-14.69372 2.76993,-18.5373 11.05973,-10.1451 8.47843,-16.07388 9.1621,-23.01185 -11.28799,6.57991 -23.19485,14.58323 -32.60007,16.83275 -4.07948,0.20308 -4.20117,-8.23321 0.42615,-8.52292 v 0 c 6.95973,-1.1882 38.33868,-22.78547 38.35304,-26.42097 l -0.8523,-5.11375 -4.90065,-0.21306 c -8.96765,-2.04151 -6.65308,-5.54552 -5.11375,-8.94904 3.21054,-8.83974 1.61181,-19.83533 15.5543,-23.86415 2.82029,-0.82529 3.87813,-0.24066 5.36596,2e-5 z"
         style="opacity:0.5;fill:#9b59b6;fill-opacity:1;stroke:#9b59b6;stroke-width:1.59443879;stroke-linecap:butt;stroke-linejoin:round;stroke-miterlimit:4;stroke-dasharray:none;stroke-opacity:1" />
    </g>
    <g
       id="g950">
      <path
         sodipodi:nodetypes="cccccccccccccccccccccccccccccccccc"
         inkscape:connector-curvature="0"
         id="path826-3-9"
         d="m 345.5811,142.30848 c -13.94248,4.02882 -12.34376,15.0244 -15.55429,23.86413 -1.53933,3.40352 -3.8539,6.90753 5.11375,8.94904 l 4.90066,0.21306 0.85229,5.11375 c -0.0143,3.6355 -31.3933,25.23277 -38.35303,26.42097 v 0 c -4.62732,0.28971 -4.50562,8.726 -0.42615,8.52292 9.40521,-2.24952 21.31209,-10.25284 32.60007,-16.83275 -0.68368,6.93797 1.89763,12.86675 -9.16211,23.01185 -3.25883,3.84358 -16.16026,17.04709 -2.76993,18.5373 l 13.21048,0.21305 c -2.37649,11.68254 -7.2117,24.18464 -12.57128,36.86155 -9.61203,3.98085 -8.55815,8.37428 -6.60524,8.94904 3.5846,1.22002 7.99397,0.99668 12.35821,0.8523 3.28253,-0.28906 4.62552,-1.74183 4.90067,-3.83532 l 14.18889,-41.86873 14.18889,41.86873 c 0.27513,2.09349 1.61813,3.54626 4.90067,3.83532 4.36423,0.14429 8.7736,0.36772 12.35819,-0.8523 1.95293,-0.57476 3.00679,-4.96819 -6.60523,-8.94904 -5.35958,-12.67691 -10.1948,-25.17901 -12.57128,-36.86155 l 13.21048,-0.21305 c 13.39034,-1.49021 0.4889,-14.69372 -2.76993,-18.5373 -11.05973,-10.1451 -8.47843,-16.07388 -9.1621,-23.01185 11.28799,6.57991 23.19485,14.58323 32.60007,16.83275 4.07948,0.20308 4.20117,-8.23321 -0.42615,-8.52292 v 0 c -6.95973,-1.1882 -38.33868,-22.78547 -38.35304,-26.42097 l 0.8523,-5.11375 4.90065,-0.21306 c 8.96765,-2.04151 6.65308,-5.54552 5.11375,-8.94904 -3.21054,-8.83974 -1.61181,-19.83533 -15.5543,-23.86415 -2.82029,-0.82529 -3.87813,-0.24066 -5.36596,2e-5 z"
         style="opacity:0.5;fill:#9b59b6;fill-opacity:1;stroke:#9b59b6;stroke-width:1.59443879;stroke-linecap:butt;stroke-linejoin:round;stroke-miterlimit:4;stroke-dasharray:none;stroke-opacity:1" />
      <path
         sodipodi:nodetypes="cccccccccccccccccccccccccccccccccc"
         inkscape:connector-curvature="0"
         id="path826-6-1"
         d="m 443.58161,142.30848 c -13.94249,4.02882 -12.34376,15.0244 -15.5543,23.86413 -1.53933,3.40352 -3.8539,6.90753 5.11376,8.94904 l 4.90065,0.21306 0.85229,5.11375 c -0.0143,3.6355 -31.39329,25.23277 -38.35302,26.42097 v 0 c -4.62733,0.28971 -4.50563,8.726 -0.42615,8.52292 9.40521,-2.24952 21.31208,-10.25284 32.60007,-16.83275 -0.68368,6.93797 1.89762,12.86675 -9.16211,23.01185 -3.25884,3.84358 -16.16026,17.04709 -2.76994,18.5373 l 13.21049,0.21305 c -2.37649,11.68254 -7.21171,24.18464 -12.57128,36.86155 -9.61203,3.98085 -8.55815,8.37428 -6.60524,8.94904 3.58459,1.22002 7.99396,0.99668 12.3582,0.8523 3.28254,-0.28906 4.62553,-1.74183 4.90067,-3.83532 l 14.18889,-41.86873 14.18889,41.86873 c 0.27514,2.09349 1.61813,3.54626 4.90067,3.83532 4.36423,0.14429 8.7736,0.36772 12.35819,-0.8523 1.95293,-0.57476 3.00679,-4.96819 -6.60522,-8.94904 -5.35959,-12.67691 -10.1948,-25.17901 -12.57129,-36.86155 l 13.21048,-0.21305 c 13.39034,-1.49021 0.4889,-14.69372 -2.76992,-18.5373 -11.05973,-10.1451 -8.47843,-16.07388 -9.16211,-23.01185 11.288,6.57991 23.19485,14.58323 32.60006,16.83275 4.07948,0.20308 4.20117,-8.23321 -0.42615,-8.52292 v 0 c -6.95972,-1.1882 -38.33867,-22.78547 -38.35302,-26.42097 l 0.8523,-5.11375 4.90064,-0.21306 c 8.96766,-2.04151 6.65309,-5.54552 5.11375,-8.94904 -3.21054,-8.83974 -1.6118,-19.83533 -15.5543,-23.86415 -2.82028,-0.82529 -3.87813,-0.24066 -5.36595,2e-5 z"
         style="opacity:0.5;fill:#2ecc71;fill-opacity:1;stroke:#2ecc71;stroke-width:1.59443879;stroke-linecap:butt;stroke-linejoin:round;stroke-miterlimit:4;stroke-dasharray:none;stroke-opacity:1" />
      <path
         sodipodi:nodetypes="cccccccccccccccccccccccccccccccccc"
         inkscape:connector-curvature="0"
         id="path826-36"
         d="m 252.94707,142.30848 c 13.94248,4.02882 12.34376,15.0244 15.55429,23.86413 1.53933,3.40352 3.8539,6.90753 -5.11375,8.94904 l -4.90066,0.21306 -0.85229,5.11375 c 0.0143,3.6355 31.3933,25.23277 38.35303,26.42097 v 0 c 4.62733,0.28971 4.50563,8.726 0.42615,8.52292 -9.40521,-2.24952 -21.31209,-10.25284 -32.60007,-16.83275 0.68368,6.93797 -1.89763,12.86675 9.16211,23.01185 3.25883,3.84358 16.16026,17.04709 2.76993,18.5373 l -13.21048,0.21305 c 2.37649,11.68254 7.2117,24.18464 12.57128,36.86155 9.61203,3.98085 8.55815,8.37428 6.60524,8.94904 -3.5846,1.22002 -7.99397,0.99668 -12.35821,0.8523 -3.28253,-0.28906 -4.62552,-1.74183 -4.90067,-3.83532 l -14.18889,-41.86873 -14.18889,41.86873 c -0.27513,2.09349 -1.61813,3.54626 -4.90067,3.83532 -4.36423,0.14429 -8.7736,0.36772 -12.35819,-0.8523 -1.95293,-0.57476 -3.00679,-4.96819 6.60523,-8.94904 5.35958,-12.67691 10.1948,-25.17901 12.57128,-36.86155 l -13.21048,-0.21305 c -13.39034,-1.49021 -0.4889,-14.69372 2.76993,-18.5373 11.05973,-10.1451 8.47843,-16.07388 9.1621,-23.01185 -11.28799,6.57991 -23.19485,14.58323 -32.60006,16.83275 -4.07948,0.20308 -4.20117,-8.23321 0.42615,-8.52292 v 0 c 6.95972,-1.1882 38.33867,-22.78547 38.35303,-26.42097 l -0.8523,-5.11375 -4.90065,-0.21306 c -8.96765,-2.04151 -6.65308,-5.54552 -5.11375,-8.94904 3.21054,-8.83974 1.61181,-19.83533 15.5543,-23.86415 2.82029,-0.82529 3.87813,-0.24066 5.36596,2e-5 z"
         style="opacity:0.5;fill:#22a6b3;fill-opacity:1;stroke:#22a6b3;stroke-width:1.59443879;stroke-linecap:butt;stroke-linejoin:round;stroke-miterlimit:4;stroke-dasharray:none;stroke-opacity:1" />
    </g>
    <g
       id="g911">
      <path
         sodipodi:nodetypes="cccccccccccccccccccccccccccccccccc"
         inkscape:connector-curvature="0"
         id="path826-6"
         d="m 742.94757,142.30848 c 13.94248,4.02882 12.34376,15.0244 15.55429,23.86413 1.53934,3.40352 3.8539,6.90753 -5.11375,8.94904 l -4.90066,0.21306 -0.85228,5.11375 c 0.0143,3.6355 31.39329,25.23277 38.35302,26.42097 v 0 c 4.62733,0.28971 4.50563,8.726 0.42615,8.52292 -9.40521,-2.24952 -21.31208,-10.25284 -32.60007,-16.83275 0.68368,6.93797 -1.89762,12.86675 9.16211,23.01185 3.25884,3.84358 16.16026,17.04709 2.76993,18.5373 l -13.21048,0.21305 c 2.37649,11.68254 7.2117,24.18464 12.57128,36.86155 9.61203,3.98085 8.55815,8.37428 6.60524,8.94904 -3.58459,1.22002 -7.99397,0.99668 -12.3582,0.8523 -3.28254,-0.28906 -4.62553,-1.74183 -4.90067,-3.83532 l -14.18889,-41.86873 -14.1889,41.86873 c -0.27513,2.09349 -1.61812,3.54626 -4.90067,3.83532 -4.36423,0.14429 -8.77359,0.36772 -12.35819,-0.8523 -1.95292,-0.57476 -3.00678,-4.96819 6.60523,-8.94904 5.35959,-12.67691 10.1948,-25.17901 12.57128,-36.86155 l -13.21047,-0.21305 c -13.39035,-1.49021 -0.48891,-14.69372 2.76992,-18.5373 11.05973,-10.1451 8.47843,-16.07388 9.1621,-23.01185 -11.28799,6.57991 -23.19485,14.58323 -32.60006,16.83275 -4.07948,0.20308 -4.20116,-8.23321 0.42615,-8.52292 v 0 c 6.95973,-1.1882 38.33867,-22.78547 38.35303,-26.42097 l -0.8523,-5.11375 -4.90065,-0.21306 c -8.96765,-2.04151 -6.65308,-5.54552 -5.11375,-8.94904 3.21054,-8.83974 1.61181,-19.83533 15.55431,-23.86415 2.82028,-0.82529 3.87812,-0.24066 5.36595,2e-5 z"
         style="opacity:0.5;fill:#2ecc71;fill-opacity:1;stroke:#2ecc71;stroke-width:1.59443879;stroke-linecap:butt;stroke-linejoin:round;stroke-miterlimit:4;stroke-dasharray:none;stroke-opacity:1" />
      <g
         transform="translate(492.85933,-268.46429)"
         id="g1654">
        <path
           style="opacity:0.5;fill:#22a6b3;fill-opacity:1;stroke:#22a6b3;stroke-width:1.59443879;stroke-linecap:butt;stroke-linejoin:round;stroke-miterlimit:4;stroke-dasharray:none;stroke-opacity:1"
           d="m 152.08774,410.77277 c 13.94248,4.02882 12.34376,15.0244 15.55429,23.86413 1.53933,3.40352 3.8539,6.90753 -5.11375,8.94904 l -4.90066,0.21306 -0.85229,5.11375 c 0.0143,3.6355 31.3933,25.23277 38.35303,26.42097 v 0 c 4.62733,0.28971 4.50563,8.726 0.42615,8.52292 -9.40521,-2.24952 -21.31209,-10.25284 -32.60007,-16.83275 0.68368,6.93797 -1.89763,12.86675 9.16211,23.01185 3.25883,3.84358 16.16026,17.04709 2.76993,18.5373 l -13.21048,0.21305 c 2.37649,11.68254 7.2117,24.18464 12.57128,36.86155 9.61203,3.98085 8.55815,8.37428 6.60524,8.94904 -3.5846,1.22002 -7.99397,0.99668 -12.35821,0.8523 -3.28253,-0.28906 -4.62552,-1.74183 -4.90067,-3.83532 l -14.18889,-41.86873 -14.18889,41.86873 c -0.27513,2.09349 -1.61813,3.54626 -4.90067,3.83532 -4.36423,0.14429 -8.7736,0.36772 -12.35819,-0.8523 -1.95293,-0.57476 -3.00679,-4.96819 6.60523,-8.94904 5.35958,-12.67691 10.1948,-25.17901 12.57128,-36.86155 l -13.21048,-0.21305 c -13.39034,-1.49021 -0.4889,-14.69372 2.76993,-18.5373 11.05973,-10.1451 8.47843,-16.07388 9.1621,-23.01185 -11.28799,6.57991 -23.19485,14.58323 -32.60006,16.83275 -4.07948,0.20308 -4.20117,-8.23321 0.42615,-8.52292 v 0 c 6.95972,-1.1882 38.33867,-22.78547 38.35303,-26.42097 l -0.8523,-5.11375 -4.90065,-0.21306 c -8.96765,-2.04151 -6.65308,-5.54552 -5.11375,-8.94904 3.21054,-8.83974 1.61181,-19.83533 15.5543,-23.86415 2.82029,-0.82529 3.87813,-0.24066 5.36596,2e-5 z"
           id="path826-2"
           inkscape:connector-curvature="0"
           sodipodi:nodetypes="cccccccccccccccccccccccccccccccccc" />
        <path
           style="opacity:0.5;fill:#9b59b6;fill-opacity:1;stroke:#9b59b6;stroke-width:1.59443879;stroke-linecap:butt;stroke-linejoin:round;stroke-miterlimit:4;stroke-dasharray:none;stroke-opacity:1"
           d="m 54.08825,410.77277 c 13.94248,4.02882 12.34376,15.0244 15.55429,23.86413 1.53933,3.40352 3.8539,6.90753 -5.11375,8.94904 l -4.90066,0.21306 -0.85229,5.11375 c 0.0143,3.6355 31.3933,25.23277 38.35303,26.42097 v 0 c 4.62732,0.28971 4.50562,8.726 0.42615,8.52292 -9.40521,-2.24952 -21.31209,-10.25284 -32.60007,-16.83275 0.68368,6.93797 -1.89763,12.86675 9.16211,23.01185 3.25883,3.84358 16.16026,17.04709 2.76993,18.5373 l -13.21048,0.21305 c 2.37649,11.68254 7.2117,24.18464 12.57128,36.86155 9.61203,3.98085 8.55815,8.37428 6.60524,8.94904 -3.5846,1.22002 -7.99397,0.99668 -12.35821,0.8523 -3.28253,-0.28906 -4.62552,-1.74183 -4.90067,-3.83532 L 51.40526,509.74493 37.21637,551.61366 c -0.27513,2.09349 -1.61813,3.54626 -4.90067,3.83532 -4.36423,0.14429 -8.7736,0.36772 -12.35819,-0.8523 -1.95293,-0.57476 -3.00679,-4.96819 6.60523,-8.94904 5.35958,-12.67691 10.1948,-25.17901 12.57128,-36.86155 l -13.21048,-0.21305 c -13.39034,-1.49021 -0.4889,-14.69372 2.76993,-18.5373 11.05973,-10.1451 8.47843,-16.07388 9.1621,-23.01185 -11.28799,6.57991 -23.19485,14.58323 -32.60007,16.83275 -4.07948,0.20308 -4.20117,-8.23321 0.42615,-8.52292 v 0 c 6.95973,-1.1882 38.33868,-22.78547 38.35304,-26.42097 l -0.8523,-5.11375 -4.90065,-0.21306 c -8.96765,-2.04151 -6.65308,-5.54552 -5.11375,-8.94904 3.21054,-8.83974 1.61181,-19.83533 15.5543,-23.86415 2.82029,-0.82529 3.87813,-0.24066 5.36596,2e-5 z"
           id="path826-3-0"
           inkscape:connector-curvature="0"
           sodipodi:nodetypes="cccccccccccccccccccccccccccccccccc" />
      </g>
    </g>
    <g
       id="g48">
      <path
         sodipodi:nodetypes="cccccccccccccccccccccccccccccccccc"
         inkscape:connector-curvature="0"
         id="path826-6-6"
         d="m 149.58161,142.30848 c -13.94248,4.02882 -12.34376,15.0244 -15.55429,23.86413 -1.53933,3.40352 -3.8539,6.90753 5.11375,8.94904 l 4.90066,0.21306 0.85229,5.11375 c -0.0143,3.6355 -31.3933,25.23277 -38.35303,26.42097 v 0 c -4.62733,0.28971 -4.50563,8.726 -0.42615,8.52292 9.40521,-2.24952 21.31208,-10.25284 32.60007,-16.83275 -0.68368,6.93797 1.89763,12.86675 -9.16211,23.01185 -3.25884,3.84358 -16.16026,17.04709 -2.76994,18.5373 l 13.21049,0.21305 c -2.37649,11.68254 -7.2117,24.18464 -12.57128,36.86155 -9.61203,3.98085 -8.55815,8.37428 -6.60524,8.94904 3.58459,1.22002 7.99397,0.99668 12.3582,0.8523 3.28254,-0.28906 4.62553,-1.74183 4.90068,-3.83532 l 14.18889,-41.86873 14.18888,41.86873 c 0.27514,2.09349 1.61813,3.54626 4.90068,3.83532 4.36423,0.14429 8.77359,0.36772 12.35819,-0.8523 1.95292,-0.57476 3.00679,-4.96819 -6.60523,-8.94904 -5.35958,-12.67691 -10.1948,-25.17901 -12.57128,-36.86155 l 13.21047,-0.21305 c 13.39035,-1.49021 0.4889,-14.69372 -2.76992,-18.5373 -11.05973,-10.1451 -8.47843,-16.07388 -9.1621,-23.01185 11.28799,6.57991 23.19484,14.58323 32.60006,16.83275 4.07947,0.20308 4.20116,-8.23321 -0.42615,-8.52292 v 0 c -6.95973,-1.1882 -38.33867,-22.78547 -38.35303,-26.42097 l 0.8523,-5.11375 4.90065,-0.21306 c 8.96765,-2.04151 6.65308,-5.54552 5.11375,-8.94904 -3.21055,-8.83974 -1.61181,-19.83533 -15.55431,-23.86415 -2.82028,-0.82529 -3.87813,-0.24066 -5.36595,2e-5 z"
         style="opacity:0.5;fill:#29cc71;fill-opacity:1;stroke:#2ecc71;stroke-width:1.59443879;stroke-linecap:butt;stroke-linejoin:round;stroke-miterlimit:4;stroke-dasharray:none;stroke-opacity:1" />
      <path
         sodipodi:nodetypes="cccccccccccccccccccccccccccccccccc"
         inkscape:connector-curvature="0"
         id="path826-22"
         d="m 56.947566,142.30848 c 13.942479,4.02882 12.343759,15.0244 15.554289,23.86413 1.53933,3.40352 3.8539,6.90753 -5.11375,8.94904 l -4.90066,0.21306 -0.852289,5.11375 c 0.0143,3.6355 31.393299,25.23277 38.353029,26.42097 v 0 c 4.627335,0.28971 4.505645,8.726 0.426155,8.52292 -9.405214,-2.24952 -21.312094,-10.25284 -32.600074,-16.83275 0.683679,6.93797 -1.89763,12.86675 9.16211,23.01185 3.25883,3.84358 16.160259,17.04709 2.76993,18.5373 l -13.21048,0.21305 c 2.37649,11.68254 7.2117,24.18464 12.57128,36.86155 9.61203,3.98085 8.558149,8.37428 6.605239,8.94904 -3.584599,1.22002 -7.99397,0.99668 -12.35821,0.8523 -3.282529,-0.28906 -4.625519,-1.74183 -4.90067,-3.83532 l -14.18889,-41.86873 -14.188889,41.86873 c -0.27513,2.09349 -1.61813,3.54626 -4.90067,3.83532 -4.36423,0.14429 -8.7736,0.36772 -12.35819,-0.8523 -1.95293,-0.57476 -3.00679,-4.96819 6.60523,-8.94904 5.35958,-12.67691 10.1948,-25.17901 12.57128,-36.86155 l -13.21048,-0.21305 c -13.39034,-1.49021 -0.4889,-14.69372 2.76993,-18.5373 11.05973,-10.1451 8.47843,-16.07388 9.1621,-23.01185 -11.28799,6.57991 -23.19485,14.58323 -32.6000605,16.83275 -4.07948,0.20308 -4.20117,-8.23321 0.42615,-8.52292 v 0 c 6.9597205,-1.1882 38.3386705,-22.78547 38.3530305,-26.42097 l -0.8523,-5.11375 -4.90065,-0.21306 c -8.96765,-2.04151 -6.65308,-5.54552 -5.11375,-8.94904 3.21054,-8.83974 1.61181,-19.83533 15.5543,-23.86415 2.82029,-0.82529 3.878129,-0.24066 5.36596,2e-5 z"
         style="opacity:0.5;fill:#9b59b6;fill-opacity:1;stroke:#9b59b6;stroke-width:1.59443879;stroke-linecap:butt;stroke-linejoin:round;stroke-miterlimit:4;stroke-dasharray:none;stroke-opacity:1" />
    </g>
    <rect
       style="opacity:1;fill:none;fill-opacity:1;stroke:#000000;stroke-width:2;stroke-linecap:butt;stroke-linejoin:round;stroke-miterlimit:4;stroke-dasharray:none;stroke-dashoffset:0;stroke-opacity:1;paint-order:markers stroke fill"
       id="rect824"
       width="189.17505"
       height="161.17505"
       x="8.6770592"
       y="133.91248" />
    <rect
       style="opacity:1;fill:none;fill-opacity:1;stroke:#000000;stroke-width:2;stroke-linecap:butt;stroke-linejoin:round;stroke-miterlimit:4;stroke-dasharray:none;stroke-dashoffset:0;stroke-opacity:1;paint-order:markers stroke fill"
       id="rect824-3"
       width="189.17505"
       height="161.17505"
       x="792.67731"
       y="133.91248" />
    <rect
       style="opacity:1;fill:none;fill-opacity:1;stroke:#000000;stroke-width:2.01855659;stroke-linecap:butt;stroke-linejoin:round;stroke-miterlimit:4;stroke-dasharray:none;stroke-dashoffset:0;stroke-opacity:1;paint-order:markers stroke fill"
       id="rect824-3-7"
       width="287.28864"
       height="162.02809"
       x="498.62027"
       y="133.48596" />
    <rect
       style="opacity:1;fill:none;fill-opacity:1;stroke:#000000;stroke-width:2.01855659;stroke-linecap:butt;stroke-linejoin:round;stroke-miterlimit:4;stroke-dasharray:none;stroke-dashoffset:0;stroke-opacity:1;paint-order:markers stroke fill"
       id="rect824-3-7-5"
       width="287.28864"
       height="162.02809"
       x="204.62001"
       y="133.48596" />
  </g>
</svg>
